<?xml version="1.0" encoding="UTF-8"?>
<svg id="Ebene_1" data-name="Ebene 1" xmlns="http://www.w3.org/2000/svg" viewBox="0 0 30 30">
  <defs>
    <style>
      .cls-1 {
        fill: #4b2c0f;
      }

      .cls-2 {
        fill: #e9a261;
      }

      .cls-3 {
        fill: #1d1d1b;
      }

      .cls-4 {
        fill: #281322;
      }

      .cls-5 {
        fill: #b66b32;
      }

      .cls-6 {
        fill: #901a31;
      }

      .cls-7 {
        fill: #d7636e;
      }
    </style>
  </defs>
  <path class="cls-3" d="M21.78,28.66c-.44-4.05-7.75.09-9.78,1.3l-.18-.02c.92-.8,1.82-.81,1.43-2.22-.16-.06-2.53,1.76-2.79,2.09l-.22-.02c.77-.78,2.15-1.71,3.01-2.23.01-.04-.04-.74-.07-.77-.63,0-1.37-.28-1.7-.81-1.81-1.72-3.06-3.92-4-6.08-.12-.38-.07-1.41-.07-1.77-.17-.24-2.36-1.82-2.61-1.92,0-.06-.87-.7-.95-.73l.18-.15,1.88-.03c-.4-.67-4.23-3.37-2.71-3.25.73,0,1.61.06,2.31-.03.09-.24-2.71-4.18-2.42-4.51.14-.15,3.66.07,4.12.08-1.53-5.97-1.17-4.42,3.65-2.63.69-.97,1.31-2.23,2.09-3.17.21-.22,1.26-1.98,1.49-1.72,1.08.71,2.91,3.41,3.87,4.35,1.42-.12,3.17-.91,4.55-.9l.05-.04c.38-.02.29.72.4.97.2.44.19.92.32,1.36.19.63.33,2.69.5,3.18.12.09,2.89-.3,2.99-.19.15.17-1.48,3.77-1.69,4.23-.07.15-.66,1.22-.61,1.27.23.25,2.96-.12,1.97.76-.73,1.03-2.53,2.71-3.02,3.72-.32,1.08-.75,2.52-2.07,2.84-.72-.14-1.52,1.07-1.86,1.52-.08.8-.02,1.71.06,2.49-.16,1.79,1.34-.48,1.98,2.98l-.11.03"/>
  <path class="cls-1" d="M14.44.2c-.44-.09-3.19,4.79-3.47,4.88s-3.81-1.65-4.46-1.64c-.1.55,1.02,4.08.89,4.25-.13.16-3.92-.26-4.08.04-.12.21,2.14,3.77,2.4,4.26l-.1.18-2.38.14c.54.17,2.4,2.06,2.71,2.12.27.05-.45-.8-.31-.92.14.05,1.42,1.1,1.48,1.03.04-.05.13-1.14.17-1.33.14-.62.4-1.37.65-1.96l-.05,2.61c.32-.34.84-1.57,1.15-1.82.05-.04.18-.1.22-.05.08.09.1,2,.41,2.26l1.26-2.81,1.13,3.35c.35-.65.64-1.35.95-2.03.02-.04-.04-.12-.03-.13.01-.02.71-1.56.8-1.58.19-.06,2.7,2.28,3.04,2.54.1.01-.23-1.93-.13-2.63,0,0,1.36,1.59,1.41,1.63.24.21.54.36.78.57.1-.2-.42-2.34-.52-2.49l3.47,2.95,1.56-1.68-.21,1.53,3.58-3.95c.04-.07.22-.54.19-.58-.1-.11-2.58.25-2.93.16-.04-.61-.81-5.32-1.05-5.48-.19-.13-3.91.87-4.43.93l-.36-.04c-.67-.74-1.22-1.59-1.87-2.35-.21-.24-1.72-1.95-1.85-1.97Z"/>
  <path class="cls-1" d="M14.44.2c-.44-.09-3.19,4.79-3.47,4.88s-3.81-1.65-4.46-1.64c-.1.55,1.02,4.08.89,4.25-.13.16-3.92-.26-4.08.04-.12.21,2.14,3.77,2.4,4.26l-.1.18-2.38.14c.54.17,2.4,2.06,2.71,2.12.27.05-.45-.8-.31-.92.14.05,1.42,1.1,1.48,1.03.04-.05.13-1.14.17-1.33.14-.62.4-1.37.65-1.96l-.05,2.61c.32-.34.84-1.57,1.15-1.82.05-.04.18-.1.22-.05.08.09.1,2,.41,2.26l1.26-2.81,1.13,3.35c.35-.65.64-1.35.95-2.03.02-.04-.04-.12-.03-.13.01-.02.71-1.56.8-1.58.19-.06,2.7,2.28,3.04,2.54.1.01-.23-1.93-.13-2.63,0,0,1.36,1.59,1.41,1.63.24.21.54.36.78.57.1-.2-.42-2.34-.52-2.49l3.47,2.95,1.56-1.68-.21,1.53,3.58-3.95c.04-.07.22-.54.19-.58-.1-.11-2.58.25-2.93.16-.04-.61-.81-5.32-1.05-5.48-.19-.13-3.91.87-4.43.93l-.36-.04c-.67-.74-1.22-1.59-1.87-2.35-.21-.24-1.72-1.95-1.85-1.97Z"/>
  <path class="cls-3" d="M7.81,20.74s-.19-.61-.21-.64"/>
  <path class="cls-3" d="M20.32,13.26c-.49-.8-1.11-1.52-1.74-2.21l.48,2.41-2.18-1.73.17,2.23c-.44-.18-3.04-2.85-3.23-2.74s-1.49,3.82-1.72,3.83c-.39.03-1.03-3.22-1.2-3.26-.15-.04-1.1,2.77-1.22,2.86-.02.01-.1,0-.13-.03-.14-.12-.39-2.05-.4-2.37l-1.37,1.87.04-2.26c-.14.79-.53,1.73-.55,2.54-.01.68.54,2.05.71,2.8l.03.14c.3,1.45.22,3.06.49,4.36.15.72,3.14,4.56,3.78,4.82.77.3,3.39.19,4.15-.17.82-.39,3.32-3.05,3.68-3.86.24-.55.36-1.25.54-1.82.22.04-.05.4.04.56.23.45,1.03.31,1.4.13,1.27-.62,1.68-2.46,1.47-3.74-.15-.9-.69-1.65-1.67-1.18-.23.11-.39.43-.54.61-.09.1-.16.21-.21.34l-.05.04s-.07,0-.09,0c-.07-.1.04-.44-.04-.49,0-.5-.09-1.51-.24-1.97-.14-.41-1.25-1.81-1.26-1.92,0-.24.66.25.77.32.02.01.21.23.25.2.05-.04-.12-.23-.15-.28Z"/>
  <path class="cls-3" d="M8.31,21.1c0-.33-.25-3.65-.43-3.68-.59-.08-.38,3.42.43,3.68Z"/>
  <path class="cls-3" d="M13.4,28.81c1.33-.59,2.66-1.19,4.04-1.66.36-.12,2.29-.57,2.37-.66.1-.12-.25-2.7-.14-3.08-.56.56-1.04,1.2-1.61,1.76-.86.84-1.37,1.38-2.6,1.56-.38.05-2.06.01-2.15.08-.08.06.27,1.73.08,2Z"/>
  <path class="cls-5" d="M13.4,28.81c.19-.27-.16-1.94-.08-2,.09-.06,1.77-.02,2.15-.08,1.23-.18,1.74-.72,2.6-1.56.57-.56,1.05-1.19,1.61-1.76-.11.38.24,2.96.14,3.08-.08.09-2.02.54-2.37.66-1.38.47-2.71,1.07-4.04,1.66Z"/>
  <path class="cls-2" d="M8.31,21.1c-.81-.26-1.02-3.76-.43-3.68.18.03.42,3.35.43,3.68Z"/>
  <path class="cls-2" d="M23.55,17.6c-.34-.46-.61-.99-1.28-.74-.25.09-.72.65-.93.18.15-.18.31-.5.54-.61.98-.47,1.53.28,1.67,1.18Z"/>
  <path class="cls-2" d="M20.71,14.94c-.14-.41-1.25-1.81-1.26-1.92,0-.24.66.25.77.32.02.01.21.23.25.2.05-.04-.12-.23-.15-.28-.49-.8-1.11-1.52-1.74-2.21l.48,2.41-2.18-1.73.17,2.23c-.44-.18-3.04-2.85-3.23-2.74-.18.1-1.49,3.82-1.72,3.83-.39.03-1.03-3.22-1.2-3.26-.15-.04-1.1,2.77-1.22,2.86-.02.01-.1,0-.13-.03-.14-.12-.39-2.05-.4-2.37l-1.37,1.87.04-2.26c-.14.79-.53,1.73-.55,2.54-.01.68.54,2.05.71,2.8,0,.04.02.09.03.14.3,1.45.22,3.06.49,4.36.15.72,3.14,4.56,3.78,4.82.77.3,3.39.19,4.15-.17.93-1.19,2.45-2.69,2.98-4.12.44-1.18.29-2.64.67-3.85.06-.18.7-1.56.88-1.46,0-.5-.09-1.51-.24-1.97ZM7.72,15.58c.1-.29.5-.54.81-.49.7.11,2.34,1.1,2.85,1.63.47.26-.53.35-.58.34-.05-.02-.63-.68-.67-.81-.79-.28-1.6-.49-2.42-.67ZM11.31,17.73c-.48.04-1.88.18-2.27.15-.12,0-.27,0-.22-.18.05-.18,2.64-.31,2.72-.21.13.15-.1.23-.23.24ZM11.27,20.32c0-.1.5-.42.61-.62.04-.08.2-.47.2-.54l.07-.77c.23.69.01,1.18-.34,1.74.24.13,1.55.1,1.65.34.1.23-.84.75-1.05.83,0,0,0,.09-.03.09-.08,0-1.11-.99-1.11-1.07ZM13.69,25.28c-.2-.17.78-.11.9-.14-.02.23-.86.17-.9.14ZM12.23,23.55c-.11-.12-.58-.7-.56-.83.04-.26,4.8-.75,5.3-.72-.69,1.91-3.11,3.25-4.74,1.55ZM18.81,17.42c-.07.07-1.72-.05-2.01-.05-.21,0-1.36.11-1.43.09-.03-.01-.06-.23-.05-.25.07-.16,3.41-.15,3.5,0,.01.02,0,.19-.02.21ZM19.7,14.94c-.07.07-1.66.24-1.97.31-.63.14-1.17.33-1.77.53,0,0-.02.03-.05.04-.01,0-.03,0-.04,0-.51.57-.75,1.19-1.56.56-.01,0-.04,0-.04,0-.02-.02-.04,0-.04-.05,0-.13,1.15-.85,1.34-.96.54-.31,2.86-1.34,3.37-1.25.12.02.9.7.78.82Z"/>
  <path class="cls-1" d="M3.22,12.05c-.04.06-.12.03-.18.03.04-.06.12-.03.18-.03Z"/>
  <path class="cls-1" d="M8,17.34l-.03-.14s.02.09.03.14Z"/>
  <path class="cls-5" d="M23.55,17.6c-.34-.46-.61-.99-1.28-.74-.25.09-.72.65-.93.18-.08.1-.16.21-.21.34l-.05.04s-.07,0-.09,0c-.07-.1.04-.44-.04-.49-.17-.1-.82,1.28-.88,1.46-.37,1.2-.23,2.67-.67,3.85-.53,1.42-2.05,2.92-2.98,4.12.82-.39,3.32-3.05,3.68-3.86.24-.55.36-1.25.54-1.82.22.04-.05.4.04.56.23.45,1.03.31,1.4.13,1.27-.62,1.68-2.46,1.47-3.74ZM22.34,17.24c-.22.05-.7.9-.59,1.14.07.16.47.24.49.45.02.28-.76.93-.86,1.31-.09.35-.07.62.32.41.22-.11.27-.45.51-.51-.16.74-1.32,1.17-.95,0,.09-.3.82-1,.83-1.15.01-.17-.4-.31-.46-.41-.25-.41.77-2.19,1.22-1.01-.22.08-.2-.3-.51-.23Z"/>
  <path class="cls-4" d="M15.96,15.78l-.05.04s-.03,0-.04,0c-.52.18-1.06.33-1.56.56-.01,0-.04,0-.04,0l-.04-.05c0-.13,1.15-.85,1.34-.96.54-.31,2.86-1.34,3.37-1.25.12.02.9.7.78.82-.07.07-1.66.24-1.97.31-.63.14-1.17.33-1.77.53Z"/>
  <path class="cls-4" d="M16.97,22c-.69,1.91-3.11,3.25-4.74,1.55-.11-.12-.58-.7-.56-.83.04-.26,4.8-.75,5.3-.72ZM12.4,23.39c0,.38.85.74,1.19.78,1.02.12,1.75-.26,2.42-.97.11-.12.95-1.03.71-1.13-.17-.07-3.48.42-3.71.51-.25.1-.61.53-.61.81ZM12.65,22.66s-.74.09-.78.1c-.05.02.31.56.34.56.04,0,.47-.64.44-.67Z"/>
  <path class="cls-4" d="M11.38,16.72c-.25-.14-.94-.36-1.24-.47-.79-.28-1.6-.49-2.42-.67.1-.29.5-.54.81-.49.7.11,2.34,1.1,2.85,1.63Z"/>
  <path class="cls-5" d="M11.82,20.14c.24.13,1.55.1,1.65.34s-.84.75-1.05.83c-.08-.19-.7-.82-.73-.96-.03-.14.1-.16.13-.21Z"/>
  <path class="cls-4" d="M18.83,17.21s0,.19-.02.21c-.07.07-1.72-.05-2.01-.05-.21,0-1.36.11-1.43.09-.03-.01-.06-.23-.05-.25.07-.16,3.41-.15,3.5,0Z"/>
  <path class="cls-4" d="M11.53,17.49c.13.15-.1.23-.23.24-.48.04-1.88.18-2.27.15-.12,0-.27,0-.22-.18s2.64-.31,2.72-.21Z"/>
  <path class="cls-4" d="M11.82,20.14s-.17.06-.13.21c.03.13.66.77.73.96,0,0,0,.09-.03.09-.08,0-1.11-.99-1.11-1.07,0-.1.5-.42.61-.62.04-.08.2-.47.2-.54l.07-.77c.23.69.01,1.18-.34,1.74Z"/>
  <path class="cls-5" d="M15.86,15.81c-.51.57-.75,1.19-1.56.56.5-.23,1.04-.39,1.56-.56Z"/>
  <path class="cls-5" d="M11.38,16.72c.47.26-.53.35-.58.34s-.63-.68-.67-.81c.3.11.99.34,1.24.47Z"/>
  <path class="cls-4" d="M14.59,25.15c-.02.23-.86.17-.9.14-.2-.17.78-.11.9-.14Z"/>
  <path class="cls-5" d="M14.26,16.37s-.04,0-.04-.05l.04.05Z"/>
  <path class="cls-5" d="M15.91,15.82l.05-.04s-.02.03-.05.04Z"/>
  <path class="cls-4" d="M21.7,20.56c.22-.11.27-.45.51-.51-.16.74-1.32,1.17-.95,0,.09-.3.82-1,.83-1.15.01-.17-.4-.31-.46-.41-.25-.41.77-2.19,1.22-1.01-.22.08-.2-.3-.51-.23-.22.05-.7.9-.59,1.14.07.16.47.24.49.45.02.28-.76.93-.86,1.31-.09.35-.07.62.32.41Z"/>
  <path class="cls-7" d="M12.4,23.39c.99-.65,2.37-.62,3.49-.31.08.02.16,0,.13.12-.67.71-1.41,1.09-2.42.97-.34-.04-1.19-.41-1.19-.78Z"/>
  <path class="cls-6" d="M16.01,23.2c.04-.12-.05-.09-.13-.12-1.11-.32-2.49-.34-3.49.31,0-.27.36-.71.61-.81.23-.09,3.54-.58,3.71-.51.24.09-.59,1.01-.71,1.13Z"/>
  <path class="cls-6" d="M12.65,22.66s-.4.67-.44.67c-.03,0-.39-.54-.34-.56.04-.02.75-.13.78-.1Z"/>
</svg>