<?xml version="1.0" encoding="UTF-8"?>
<svg id="Ebene_2" data-name="Ebene 2" xmlns="http://www.w3.org/2000/svg" viewBox="0 0 26.01 29.13">
  <defs>
    <style>
      .cls-1 {
        fill: #fbe4de;
      }

      .cls-2 {
        fill: #a7bbd5;
      }

      .cls-3 {
        fill: #dde6f6;
      }

      .cls-4 {
        fill: #394f75;
      }

      .cls-5 {
        fill: #3e2f2a;
      }

      .cls-6 {
        fill: #edf5f9;
      }

      .cls-7 {
        fill: #c2d1e6;
      }

      .cls-8 {
        fill: #5d549e;
      }

      .cls-9 {
        fill: #fbe8d8;
      }

      .cls-10 {
        fill: #cec7e3;
      }

      .cls-11 {
        fill: #7e7bb8;
      }

      .cls-12 {
        fill: #ecc8b7;
      }

      .cls-13 {
        fill: #fdfdfd;
      }
    </style>
  </defs>
  <g id="Ebene_1-2" data-name="Ebene 1">
    <g>
      <path class="cls-2" d="M17.06,1.01l-.04-.09s.04.08.04.09Z"/>
      <path class="cls-12" d="M15.93,21.37c-.1.82-.18,1.97-.43,2.73-.01.04-.03.09-.04.13-.35-.04-.69-.08-1.04-.11-.53-.06-1.07-.03-1.49-.04-.38,0-.79-.1-1.22-.09-.26,0-1.71.21-1.77.15-.04-.04.13-.55.11-.68.16,0,.79-.12,1.03-.17,1.45-.32,4.63-1.99,4.86-1.91Z"/>
      <path class="cls-12" d="M15.99,18.02c0,.76.03,1.69-.05,2.42-.02.16-.06.64-.11.74-.19.38-4,1.61-4.64,1.78,1.41-1.13,2.61-2.46,3.65-3.94.33-.47.56-1.16,1.07-1.45,0,.12.07.34.07.45Z"/>
      <path class="cls-12" d="M7.52,6.89c-.68.55-1.55,2.91-1.97,3.75-.12-.01-1.24.1-.83.24.12.04.48-.02.69,0l-.69,1.72c-.14-.9-.55-.76-.18-1.92l.1-.33c.03-.08.12-.16.15-.24,0-.01.08-.05.11-.11.35-.86.65-1.49,1.09-2.31.15-.28.32-.58.48-.85.35-.17.72-.05,1.06.05Z"/>
      <path class="cls-13" d="M12.52,12.19c.2.06,1.68-.58,1.72-.46.01.04-.2.6-.22.79-.04.46.07.76.1,1.17l-1.11-.35c-.26-.22-.62-.72-.52-1.09,0-.02.01-.05.02-.07Z"/>
      <path class="cls-1" d="M8.41,7.09s.01.48.03.73c.03.44.12,2.05.32,2.39,0,.03-.05.1-.04.13l.07.24c0,.05.01.1.02.15.02.1.03.2.05.3.11.6.28,1.15.46,1.72.16.5.38,1.03.61,1.49-.23-.02-.67-.49-.76-.68-.05-.11.03-.3,0-.41-.02-.08-.23-.12-.24-.29,0-.05.31-.8-.07-.83-.06,0-.62.51-.64.54-.27.49.14,1.17-.33,1.73-.15.03-.3.05-.45.07.04-.08.05-.18.08-.26.11-.07.23-.14.3-.26.11-.21.25-1.27.17-1.45-.01-.03-.02-.06-.04-.09l.02-.07s.02-.09.04-.13c0-.02.02-.05.02-.07,0,0,.11-.02.08-.12-.04-.14-1.12-.91-1.31-.99.35-.12.53.25.78.39.12.07.28-.06.35-.03.06.03.5,1.13.81.24.03-.1-.24-1.88-.28-1.97-.06-.11-.35-.19-.36-.23-.03-.11.21-.21.23-.36.06-.38-.18-1.16-.25-1.51-.06-.3.5-.29-.56-.61.22-.18.68.04.89.2Z"/>
      <path class="cls-12" d="M8.39,15.86c-.1-.12-.44-.82-.38-.98.02-.06.84-.42.88-.4.06.03.34,1.14.28,1.27-.04.1-.51.35-.59.35-.21-.02-.13-.16-.19-.24Z"/>
      <polygon class="cls-5" points="11.93 17.02 10.2 17.43 8.3 17.6 10.01 17.27 11.93 17.02"/>
      <path class="cls-12" d="M10.28,18.15c.03.07-.38.59-.48.6-.12.02-.77-.4-.35-.57.04-.02.81-.07.83-.03Z"/>
      <path class="cls-5" d="M8.12,14.32c-.07,0-.14-.01-.22,0-.15.03-.3.05-.45.07-.24.5.39,1.76.55,1.68.12-.06-.5-1.19-.42-1.39.05-.13.42-.17.59-.28.43-.26.06-.09-.04-.09Z"/>
      <path class="cls-12" d="M12.26,12.11c-.18-.04-.35-.05-.54-.1.42-.33.85-.67,1.3-.95.04-.03.11-.05.17-.09.27-.15.56-.25.84-.38.23-.1.49-.31.75-.34l.27.95c-.23.02-1.74.53-2,.66-.15.08-.46.2-.54.33-.01.02-.02.05-.02.07-.05-.01-.09-.1-.11-.11-.02,0-.13-.04-.13-.04Z"/>
      <path class="cls-6" d="M15,11.56c.35.07.04.38-.1.55-.94,1.14-.97-.75.1-.55Z"/>
      <path class="cls-11" d="M14.64,13.87c-.57-.17-.45-.33-.3-.88.27.09-.04.56.3.17-.03.16-.07.32-.08.48,0,.11-.04.14.07.24Z"/>
      <path class="cls-7" d="M6.55,1.78s.06-.03.09-.04c-.02.02-.06.03-.09.04Z"/>
      <path class="cls-11" d="M9.37,23.31s.04.01.07.02l-.07-.02Z"/>
      <path class="cls-5" d="M20.16,3c.23.16.48.34.7.51.63.47,1.39,1.21,1.87,1.81-.98-.86-2.04-1.64-3.01-2.53.1.07.29.11.44.21Z"/>
      <g>
        <path class="cls-5" d="M13.13.27c-.24.16-.7.69-.87.94.32-.05.6-.62.85-.78.32-.22,1-.33,1.39-.37-.48-.12-.93-.06-1.36.22Z"/>
        <path class="cls-5" d="M19.5,2.57c-.39-.35-1.24-.92-1.71-1.18-.24-.14-.5-.25-.74-.38l-.04-.09c-.49-.25-1.34-.61-1.86-.8-.17-.06-.45-.21-.6-.04,1.63.47,3.5,1.64,4.93,2.56.05.03.11.08.18.13,0-.13-.09-.14-.15-.19Z"/>
      </g>
      <path class="cls-5" d="M8.87.58c-.22.18-.46.02-.71.1-.23.07-.34.43-.62.4-.41.38-.88.85-1.33,1.24l-2.05,2.72c.34-.64.71-1.21,1.14-1.79.2-.27.43-.63.64-.87.12-.14.46-.46.62-.59.03-.02.06-.02.09-.04.25-.25.51-.5.74-.77.04,0,.47-.34.76-.42.39-.11.44.02.72.03Z"/>
      <path class="cls-10" d="M24.31,12.91s-.04-.02-.07,0c-.1.03-.1.29-.25.39-.79.52-1.44-1.24-1.63-1.14-.1.05.12.97-.17.88-.15-.05-1.65-2.2-1.94-2.53-.52-.6-1.96-2.23-2.66-2.44-.29-.08-1.07.06-1.27-.12-.04-.04-.17-1.25-.35-.99-.28.41-.21,1.67-.33,2.19-.02.1-.1.58-.27.52l-2.02-5.76c.03-.2.27,0,.35.04.32.16,1.73,1.54,1.83,1.48.05-.03.06-.41.22-.47.2-.08.43.32.49.27.06-.04.09-.5.2-.51.34-.03,2.2,1.36,2.57,1.66.99.82,3.03,3.41,3.75,3.83.45.26.99.08,1.3.3.12.08.34.09.55.88.01.05.08.49.35-.52.02-.09.14-.61.19-.67.03-.04.19,1.29.32,2.61.12,1.25.21,2.49.22,2.58,0,.05.01.17.01.17,0,0,0,.09,0,.11,0,0,.01.03-.02.03-.01,0-.03-.01-.04-.02-.01-.02-.02-.05-.02-.05-.09-.23-.54-1.27-.54-1.27-.43-.97-.68-1.37-.77-1.4Z"/>
      <path class="cls-10" d="M6.43,6.26c.08.18-2.01,2.89-1.91,3.55-.31-.11,0-1.24-.12-1.33-.4-.28-.94.98-1.26,1.04.03-.57.83-3.34,1.13-3.59.47-.38.03,1.08.71,1.14.09,0,1.31-1.12,1.45-.82Z"/>
      <path class="cls-8" d="M9.92,6.79c-.16-.18-.21-.9-.34-1.22-.16-.39-.59-1.51-.95-.84-.05-.01-.09-.1-.11-.11.74-1.04,1.51,1.61,1.4,2.16Z"/>
      <path class="cls-5" d="M12.17,1.26c-.4-.18-.84-.22-1.26-.33-.36-.09-.62-.17-1-.24-.13-.02-.27-.1-.39-.12-.23-.04-.16.09-.17.09.04.01.09.03.13.04.13.04.26.09.39.12.71.19,1.5.3,2.17.61-.36.51-.57,1.05-.86,1.59-.16.3-.44.63-.62,1.06-.13.3-.44.93-.35,1.21.38-.73.66-1.52,1.04-2.25.26-.5.69-1.3.99-1.77l-.07-.02Z"/>
      <path class="cls-8" d="M15.36,10.01c.08-.02.46-.2.67-.23.19-.03,1.81-.13,1.86-.05.06.11-.16.14-.22.15-.44.07-1.86.15-2.31.13Z"/>
      <path class="cls-5" d="M6.82,6.38c.11-.29,1.33-2,1.79-1.58,0-.02.01-.05.02-.07-.05-.01-.09-.1-.11-.11-.61-.24-1.54,1.25-1.83,1.71-.1.15-.15.37-.23.5.35-.17.72-.05,1.06.05.22-.18.68.04.89.2,0-.09,0-.19,0-.28-.47-.15-.95-.19-1.43-.24-.14-.01-.23.14-.18-.13,0-.02.01-.05.02-.07Z"/>
      <path class="cls-5" d="M22.79,5.33c1.28,1.13,2.22,2.14,2.34,3.96-.18-.6-.64-2.05-.96-2.5-.34-.48-1.22-.91-1.38-1.47Z"/>
      <path class="cls-5" d="M15.12,11.22s-.04-.02-.07-.02c-.23.02-1.74.53-2,.66-.15.08-.46.2-.54.33.2.06,1.68-.58,1.72-.46.01.04-.2.6-.22.79-.04.46.07.76.1,1.17l-1.11-.35c.35.29.53.32,1.07.48.29.09.78.35,1.02.18.1-.04.16-.13.19-.19.08-.14.09-.21.11-.29.01-.04.02-.09.04-.13.14.32.48,4.06.48,4.16,0,.12.07.34.07.45,0,.76.03,1.69-.05,2.42-.02.16-.06.64-.11.74-.19.38-4,1.61-4.64,1.78-.03,0-.06.04-.09.04-.05.02-.07.08-.25.12-.1.06-.23.08-.33.12-.15.06-.54-.03-.56.18.02,0,.04.02.07.02.16,0,.85-.1,1.12-.18,1.5-.4,4.55-1.98,4.78-1.9.04-.3.11-.55.14-.89.08-.85.01-1.6-.02-2.44,0-.18.01-.71-.04-1.13,0-.5.03-1.38-.21-1.79-.01-.28-.12-.93-.12-.93,0-.09-.03-.43-.1-.82-.04-.23-.34-1.69-.3-1.77.16-.25,1.39,0,1.65.19l.03.58c.04-.21.18-.45.21-.65.06-.46-1.69-.53-2.06-.51ZM15,11.56c.35.07.04.38-.1.55-.94,1.14-.97-.75.1-.55ZM15.14,13.88c-.21.09-.3.05-.5-.01-.57-.17-.45-.33-.3-.88.27.09-.04.56.3.17-.03.16-.07.32-.08.48.55.32.46-1.19.64-1.45.27.6.05,1.1-.07,1.7Z"/>
      <g>
        <path class="cls-5" d="M14.95,10.17c.18-.04.31-.14.41-.16-.16,0-.45.04-.55-.06-.08-.08-.54-1.77-.69-2.12.2.69.42,1.53.51,2.24-.73.2-.97.38-1.59.72-.52.28-.55.19-1.07.67-.11.1-.46.26-.5.45-.06.22.17.09.25.11.42-.33.85-.67,1.3-.95.04-.03.11-.05.17-.09.27-.15.56-.25.84-.38.23-.1.49-.31.75-.34l.27.95s.04.02.07.02c.02-.33-.19-.61-.21-.93,0-.03.04-.09.04-.13Z"/>
        <path class="cls-5" d="M14.11,7.82c-.1-.34-.2-.59-.3-.88-.1.33.19.64.3.88Z"/>
      </g>
      <path class="cls-8" d="M3.62,13.11l.21-.65c-.07.22-.14.43-.21.65Z"/>
      <path class="cls-8" d="M4.01,11.87l.12-.39c-.05.13-.08.26-.12.39Z"/>
      <g>
        <path class="cls-8" d="M1.44,22.96l-.1.08c-.3-.74-.24-1.55-.42-2.32-.07.74,0,1.67.34,2.33.12.23.15.71.26.08.01-.06.06-.63.07-.75l-.16.58Z"/>
        <path class="cls-8" d="M1.73,22.05c-.21.07-.11.29-.12.39.04-.13.09-.26.12-.39Z"/>
      </g>
      <path class="cls-8" d="M16.88,23.61c.05-.13.14-.23.15-.24l-.15.24Z"/>
      <path class="cls-11" d="M25.97,16.19c-.02-.65-.4-3.7-.31-3.98.04-.12.14.64.21.59l-.64-3.22c0-.09-.09-.27-.1-.28-.18-.6-.64-2.05-.96-2.5-.34-.48-1.22-.91-1.38-1.47-.02-.01-.05,0-.07-.02-.98-.86-2.04-1.64-3.01-2.53-.02-.01-.05,0-.07-.02-.07-.04-.13-.1-.18-.13-1.43-.93-3.3-2.1-4.93-2.56-.02,0-.04-.02-.07-.02-.39.04-1.07.15-1.39.37-.24.17-.52.74-.85.78-.01.02,0,.05-.02.07-.3.47-.73,1.26-.99,1.77-.38.74-.66,1.52-1.04,2.25-.09-.28.22-.92.35-1.21.19-.43.46-.76.62-1.06.29-.54.5-1.08.86-1.59-.67-.32-1.46-.42-2.17-.61-.13-.04-.26-.09-.39-.12-.04-.01-.09-.03-.13-.04-.14-.02-.24-.09-.33-.1-.02,0-.12.02-.15.02-.22.18-.49.01-.74.09-.23.07-.32.38-.61.34-.41.38-.86.91-1.31,1.31l-2.05,2.72c-.91,1.72-1.24,3.13-1.78,4.96.18.05-.01.69-.04.81-.3,1.16-.55,2.67-.89,3.73-.04.13-.02.29-.2.19,0-.19.37-.7.1-.76-.66,1.57-1.05,3.45-1.06,5.15,0,.11-.13.17.08.2l.71-2.25c.02-.06-.07-.43.13-.42,0,.82-.06,1.65-.13,2.47-.02.19-.01.37-.1.54,0,.02.18-.08.06.28-.04.14-.14.11-.25.31,0,0,.15.43.15.44,0,.01,0,.02-.01.03.17.77.11,1.58.42,2.32l.1-.08.11-.37c0-.07.05-.14.06-.15.01-.1-.09-.32.12-.39.07-.3.09-.67.16-.95q-.08-.14-.06-.27c.34-1.86.7-3.71,1.17-5.54.07-.26.17-.52.25-.78,0-.01-.04-.07,0-.22.11-.39.25-.78.37-1.17l.21-.65c.06-.19.12-.39.19-.59l.12-.39c.17-.47.33-.96.52-1.41.05-.12.13-.2.15-.24.38-.9.6-1.4,1.13-2.22.21-.33.15-.58.53-.76.08-.13.13-.35.23-.5.3-.47,1.22-1.95,1.83-1.71.74-1.04,1.51,1.61,1.4,2.16.02.02.09.02.13.04.12-.16.4-.64.42-.66.02-.06.12-.24.15-.24.02-.04,1.46-2.25,1.82-2.22.21.02.25.11.35.25.2.27.68,1.84.82,2.27.04.12.03.24.05.3.03.1.09.25.11.32,0,.03.04.06.04.09.09.3.2.54.3.88.16.35.61,2.04.69,2.12.1.1.4.05.55.06.08-.02.46-.2.67-.23.19-.03,1.81-.13,1.86-.05.06.11-.16.14-.22.15-.44.07-1.86.15-2.31.13-.1.02-.22.11-.41.16,0,.04-.04.1-.04.13.02.31.23.6.21.93.37-.03,2.12.05,2.06.51-.02.2-.17.44-.21.65l-.03-.58c-.26-.19-1.5-.44-1.65-.19-.05.08.26,1.54.3,1.77.07.39.11.73.1.82,0,.04.12.71.12.97,0,.04.23,2.61.24,2.87.03.84.09,1.59.02,2.44-.03.34-.1.59-.14.89.07.02.1,0,.12.09.09.38-.36,2.51-.46,3.03-.03.16-.05.31-.08.48-.09.43-.22.84-.33,1.26-.02.06-.05.14-.06.2.24.06.28-.13.36-.24.24-.33.63-.89.82-1.24.03-.05.04-.13.06-.2.04-.08.03-.22.15-.24.06-.12.07-.27.12-.39.05-.11.13-.21.17-.31.03-.06.04-.13.06-.2.05-.13.14-.23.15-.24.02-.04.03-.09.04-.13.94-2.46,1.72-5.07,2.11-7.66.05-.31.09-2.03.18-2.08.57-.34,1.95,7.06,1.85,7.54l2.72-3.84c.19-.07.52,1.39.55,1.57.09.51.12,1.1.14,1.61,0,.22-.13,1.19.12,1.05.35-.18,1.13-2.43,1.21-2.92.12-.68.03-1.62.02-2.32ZM4.52,9.81c-.31-.11,0-1.24-.12-1.33-.4-.28-.94.98-1.26,1.04.03-.57.83-3.34,1.13-3.59.47-.38.03,1.08.71,1.14.09,0,1.31-1.12,1.45-.82.08.18-2.01,2.89-1.91,3.55ZM25.64,15.62c-.19-.4-1.04-2.59-1.33-2.71-.17-.07-.14.27-.32.38-.79.52-1.44-1.24-1.63-1.14-.1.05.12.97-.17.88-.15-.05-1.65-2.2-1.94-2.53-.52-.6-1.96-2.23-2.66-2.44-.29-.08-1.07.06-1.27-.12-.04-.04-.17-1.25-.35-.99-.28.41-.21,1.67-.33,2.19-.02.1-.1.58-.27.52l-2.02-5.76c.03-.2.27,0,.35.04.32.16,1.73,1.54,1.83,1.48.05-.03.06-.41.22-.47.2-.08.43.32.49.27.06-.04.09-.5.2-.51.34-.03,2.2,1.36,2.57,1.66.99.82,3.03,3.41,3.75,3.83.45.26.97.11,1.3.3.83.47.38,2.27,1.09-.32.27,1.82.43,3.65.57,5.48,0,.03-.04.03-.07-.02Z"/>
      <path class="cls-8" d="M3.25,14.5s-.04-.07,0-.22v.22Z"/>
      <path class="cls-8" d="M10.73,5.82c.3-.31,1.43-2.06,1.8-1.94.12.04.85,1.98.89,2.29-.67.01-2.77.83-3.23.7.11-.18.17-.37.25-.57.13-.03.13-.2.17-.31.08-.03.09-.14.13-.17Z"/>
      <path class="cls-10" d="M16.98,24.21c-.03.13-.09.26-.12.39-.36-.11-.24-.05-.07-.45.05-.12.12-.21.17-.31.02-.04.02-.09.04-.13.04.14.01.36-.01.5Z"/>
      <path class="cls-8" d="M2.38,9.99c-.07.25-.11.58-.17.77l-.39,1.24c-.04.14-.06.42-.13.64-.22.72-.47,1.3-.7,2-.09.26-.22.47-.31.76-.28.91-.29,1.47-.39,2.38-.09.78-.22,1.6-.27,2.54l.1-.16c-.1.32-.11.86.06,1.17,0,0,.11.38.15.39.03-.06.07-.4.08-.46.02-.1,0-.24.04-.35.11-.22.24-.45.36-.68.11-.2.2-.17.25-.31.04-.13.1-.41.09-.44-.02-.06-.15.18-.15.17.08-.17.08-.36.1-.54.08-.82.13-1.65.13-2.47-.2-.01-.11.37-.13.42l-.71,2.25s-.08-.09-.08-.2c0-1.7.4-3.59,1.06-5.15.28.05-.1.57-.1.76.03.02-.04.3-.02.3.09,0,.19-.39.22-.49.33-1.06.59-2.57.89-3.73.03-.12.22-.77.04-.81Z"/>
      <path class="cls-8" d="M3.07,15.3c.09-.36.93-3.47,1.12-3.44.2.03.52,2.15.54,2.44.19,2.55-.75,2.93.89,5.18.7.96,2.57,3.3,3.5,3.9.25.16,1.05.25.59.76-.1.11-.95.21-1.17.38-.5.41-.11.78-1.22.23-.45-.23-.94-1.08-1.4-.64-.2.2-.06.56-.39.34-.5-.32-.57-2.98-1.39-1-.06.14-.1.31-.14.46-.28,0-.3-.36-.32-.38-.05-.05-.2.02-.23,0-2.24-2.09-1.05-5.59-.39-8.22Z"/>
      <path class="cls-9" d="M15.74,15.3c-.06-.51-.13-.88-.13-.99,0-.04-.02-.55-.17-.91-.02.04-.06.15-.08.19-.02.07-.07.26-.13.32,0,0-.11.1-.13.1-.24.17-.73-.09-1.02-.18-.53-.16-.71-.19-1.07-.48-.26-.22-.62-.72-.52-1.09-.05-.01-.09-.1-.11-.11-.04-.02-.09-.03-.13-.04-.18-.04-.35-.05-.54-.1-.08-.02-.31.11-.25-.11.05-.19.39-.35.5-.45.52-.48.55-.38,1.07-.67.62-.33.86-.52,1.59-.72-.09-.71-.31-1.55-.51-2.24-.11-.24-.4-.55-.3-.88,0-.03-.04-.06-.04-.09-.02-.07-.08-.22-.11-.32-.4-.3-1.47.26-1.91.36-.79.18-1.72.44-2.53.31-.04.23-.08.45-.14.67,0,.02-.02.04-.02.07l-.05.63s.05.04.04.09l-.06.2s-.02.04-.02.07c.18.18,0,.67,0,.92,0,.04.08.14.08.18.02.33.06.64.1.87.06.38.2.99.28,1.33.05.2.18.53.25.8.07.27.44,1.66.51,1.73.06.07-.23-.46-.27-.54-.23-.02-.64-.44-.73-.63-.05-.11.03-.3,0-.41-.02-.08-.23-.12-.24-.29,0-.05.31-.8-.07-.83-.06,0-.62.51-.64.54-.27.49.14,1.17-.33,1.73.08-.01.15,0,.22,0,.11,0,.47-.18.04.09-.17.1-.54.15-.59.28-.07.2.54,1.33.42,1.39-.16.08-.78-1.18-.55-1.68.04-.08.05-.18.08-.26-.05.03-.19,0-.22,0-.46.25-1.06.61-1.6.28-.08-.05-.07-.15-.09-.17-.21-.27-.5-.88-.47-1.22-.64-1.03.44-.93,1.15-.93.43,0,.79.12,1.17.15l-1.22-.24c-.07-.03-.23-.02-.17-.13.46,0,.96.12,1.41.16.07,0,.08-.12.09-.12-.57-.37-1.3-1.01-1.98-1.12-.13-.02-.19.08-.2.08l-.69,1.72c.1.61.21,1.53.23,2.14.08,2.24-.7,2.7.76,4.7.44.6,2.98,3.54,3.46,3.82.05.03.13.04.2.06.02,0,.04.01.07.02.17.06.37.09.54.1.02-.21.41-.13.56-.18.11-.04.25-.07.35-.13.03-.02.09-.02.23-.12.03,0,.06-.04.09-.04,1.41-1.13,2.61-2.46,3.65-3.94.33-.47.56-1.16,1.07-1.45,0-.12-.11-1.73-.17-2.26ZM8.89,14.49c.06.03.34,1.14.28,1.27-.04.1-.51.35-.59.35-.21-.02-.13-.16-.19-.24-.1-.12-.44-.82-.38-.98.02-.06.84-.42.88-.4ZM9.8,18.76c-.12.02-.77-.4-.35-.57.04-.02.81-.07.83-.03.03.07-.38.59-.48.6ZM10.2,17.43l-1.9.17,1.71-.33,1.92-.24-1.73.4Z"/>
      <path class="cls-8" d="M4.53,10.67c.03-.11.06-.22.1-.33l-.1.33Z"/>
      <path class="cls-5" d="M13.61,6.23c-.15-.43-.62-2-.82-2.27-.1-.14-.15-.24-.35-.25-.36-.03-1.33,1.37-1.53,1.69-.13.22-.74,1.27-.86,1.42-.04-.02-.11-.02-.13-.04,0,.02-.01.04-.02.07-.02.06-.12.18-.14.19-.03.01-.14-.01-.21-.01.07-.21-.18-.37-.18-.54,0-.18.34-.39.05-.43-.22.31-.37,1.03-.38,1.1-.04.21-.18.73.02.72.06-.23.1-.44.14-.67.82.13,1.74-.13,2.53-.31.44-.1,1.51-.66,1.91-.36-.02-.06,0-.19-.05-.3ZM10.18,6.87c.11-.18,1.98-3.11,2.34-2.99.12.04.85,1.98.89,2.29-.67.01-2.77.83-3.23.7Z"/>
      <path class="cls-8" d="M6.82,6.38s-.02.04-.02.07c-.05.27.04.11.18.13.48.05.96.08,1.43.24.03-.54.02-1.55.21-2.01-.47-.42-1.68,1.3-1.79,1.58Z"/>
      <path class="cls-9" d="M7.52,6.89c1.06.32.5.3.56.61.07.35.31,1.13.25,1.51-.02.15-.26.25-.23.36.01.04.31.13.36.23.05.09.32,1.87.28,1.97-.31.89-.75-.21-.81-.24-.07-.04-.23.09-.35.03-.26-.14-.43-.51-.78-.39-.31-.14-.92-.29-1.26-.33.42-.84,1.29-3.2,1.97-3.75Z"/>
      <path class="cls-8" d="M8.72,10.35s.03.03.07.24l-.07-.24Z"/>
      <path class="cls-6" d="M7.83,13.87l-.49.2-.07-.02s0-.04.02-.07c.01-.02.01-.04.02-.07.07-.19.04-.43.05-.63.06-.77-.33-1,.64-.87.07.18-.07,1.24-.17,1.45Z"/>
      <path class="cls-3" d="M6.31,12.31c.12,0,.76-.01.78.03.03.05-.55,1.11-.81.75,0-.02-.03-.07-.03-.09-.02-.13-.03-.18-.03-.28.01-.12-.01-.26.09-.4Z"/>
      <path class="cls-4" d="M7.27,14.05c-.04.05-.32.13-.41.16.3-.4-.05-2.19.5-.92-.02.2.02.44-.05.63l-.02.07s0,.05-.02.07Z"/>
      <path class="cls-11" d="M6.36,14.19c.06-.15,0-.38.1-.54.17.22.23.26.18.56l-.02.07c-.16,0-.09.05-.26-.08Z"/>
      <path class="cls-5" d="M6.81,10.96c-.31-.14-.92-.29-1.26-.33-.12-.01-1.24.1-.83.24.12.04.48-.02.69,0,.01,0,.07-.1.2-.08.67.11,1.41.76,1.98,1.12,0,0-.01.12-.09.12-.44-.04-.95-.16-1.41-.16-.05.11.11.09.17.13l1.22.24s.07-.05.09-.04c.1.05.32.07.39.12l.02-.07s.02-.09.04-.13l.02-.07s.11-.02.08-.12c-.04-.14-1.12-.91-1.31-.99Z"/>
      <path class="cls-5" d="M7.27,14.05c-.04.05-.32.13-.41.16.3-.4-.05-2.19.5-.92.06-.77-.33-1,.64-.87-.01-.03-.02-.06-.04-.09-.07-.06-.29-.07-.39-.12-.02,0-.06.05-.09.04-.38-.04-.74-.15-1.17-.15-.71,0-1.79-.1-1.15.93.07-.81.43-.71,1.16-.71.12,0,.76-.01.78.03.03.05-.55,1.11-.81.75-.09.32-.29.8.08,1.1.06-.15,0-.38.1-.54.17.22.23.26.18.56l-.02.07c-.16,0-.09.05-.26-.08-.02.04-.02.09-.04.13l-.02.07c-.15.06-.42.02-.56-.03,0,0-.02-.11-.11-.11.02.03,0,.12.09.17.54.33,1.14-.03,1.6-.28.02-.01.17.03.22,0,.11-.07.23-.14.3-.26l-.49.2-.07-.02Z"/>
      <path class="cls-13" d="M6.28,13.09s-.06-.11-.06-.13c0-.58-.02-.52.09-.65-.73,0-1.09-.1-1.16.71-.03.34.26.96.47,1.22.09,0,.1.1.11.11.14.06.42.1.56.03l.02-.07s.03-.09.04-.13c-.38-.3-.17-.78-.08-1.1Z"/>
      <path class="cls-4" d="M8.02,12.13l.02-.07s-.01.05-.02.07Z"/>
      <path class="cls-11" d="M9.68,13.02c-.51-1.71-.73-3.47-.6-5.14-.24-.37.16-1.35.36-1.82.28.04-.05.25-.05.43,0,.17.24.33.18.54.71.29.19-1.05.03-1.46-1.21-3.11-1.46,1.12-.87,4.94.29,1.87,1.48,4.63,1.52,4.3.01-.11-.28-.89-.56-1.8Z"/>
      <path class="cls-6" d="M23.05,29.07c-.33-.61-1.22-1.97-1.86-2.23-.41-.16-1.87-.08-2.37-.04l-.09.04c-.66.05-2.9.28-3.33.67-.16.14-.48.6-.54.68-.01.09-.07.23-.1.33,0,.02-.01.04-.02.07,1.82-.23,3.67-.67,4.35-.59,1.34.16,3.96,1.06,3.96,1.06"/>
      <path class="cls-5" d="M14.75,28.53l-.07-.02c.05-.08.05-.16.17-.31-.01.09-.07.23-.1.33Z"/>
      <path class="cls-5" d="M22.01,27.29c-.22-.2-.53-.39-.77-.58l-2.95-.14c-.2-.38.23-.61.29-.84.07-.26-.12-.41-.35-.47-.02,0-.07.05-.09.04.04.25-.07,1.31-.18,1.44-.07.08-1.87.25-2.22.4-.4.17-.6.52-.74.58-.17.07-.38-.05-.49-.04-2.17.21-4.41.13-6.64.34-.05,0-.1.02-.15.02-.26.02-.57-.05-.82.1.11.03.22.07.33.1.14-.08.3-.07.45-.07.92-.04,6.85-.49,7.21-.23.06.05-.04.19-.05.27.07-.08.39-.54.54-.68.43-.4,2.67-.62,3.33-.67.02,0,.06-.04.09-.04.5-.03,1.96-.11,2.37.04.65.25,1.53,1.61,1.86,2.23.03-.01.16.07.2.06l.03-.21c-.1-.03-1.02-1.41-1.26-1.63Z"/>
      <path class="cls-11" d="M18.73,26.84s.06-.04.09-.04l-.09.04Z"/>
      <path class="cls-6" d="M11.09,24.21c-.06.15-.05.21.06.32.34.37,1.33.92,1.81,1.35.58.53,1.07,1.17,1.56,1.78-2.17.21-4.41.13-6.64.34l.02-.07c.12-.14.06-.38.08-.48.09-.38.19-.65.26-1.06.03-.17.08-.29.08-.48,0-.05.08-.12-.02-.15.2-.31,0-.75.25-1.03s2.11-.53,2.54-.52Z"/>
      <path class="cls-7" d="M16.46,24.69c.59.14.31.13.27.51-.04.3-.09.59-.14.89-.02.13-.1.26-.12.39.15-.02.23-.16.36-.24.42-.26.46-.34.79-.68.12-.12.15-.18.23-.28.01-.02,0-.05.02-.07.09.02.18.07.26.08.04.25-.07,1.31-.18,1.44-.07.08-1.87.25-2.22.4-.4.17-.6.52-.74.58-.17.07-.38-.05-.49-.04-.49-.61-.98-1.25-1.56-1.78-.47-.43-1.47-.98-1.81-1.35-.11-.11-.12-.18-.06-.32.02,0,.04.02.07.02.05,0,.1,0,.15-.02.55-.03,1.11-.06,1.67-.05.43.01,1.27.02,1.49.04.23.03.76.17,1,.24-.09.14,0,.4-.01.5-.07.38-.24.85-.33,1.26-.05.22-.15.43-.21.65.21.08.27-.14.36-.24.11-.12.19-.3.27-.41.33-.42.59-.75.82-1.24.03-.06.03-.14.06-.2,0-.02.01-.04.02-.07Z"/>
      <path class="cls-5" d="M8.12,26.36c-.07.28-.14.58-.2.87-.01.07-.05.13-.06.2-.04.17-.19.48.05.52.12-.14.06-.38.08-.48.09-.38.19-.65.26-1.06.03-.17.08-.29.08-.48-.14.07-.17.3-.21.44Z"/>
      <path class="cls-8" d="M24.74,21.43c-.26.13-.11-.83-.12-1.05-.02-.52-.05-1.11-.14-1.61-.03-.18-.36-1.64-.55-1.57l-2.72,3.84c.1-.47-1.28-7.87-1.85-7.54-.09.05-.13,1.77-.18,2.08-.39,2.59-1.18,5.21-2.11,7.66.26.4-.07.45-.08.48.04.14.01.36-.01.5.24.02.04.24,0,.43-.04.2,0,.7-.25.57-.04.3-.09.59-.14.89-.02.13-.1.26-.12.39.15-.02.23-.16.36-.24.42-.26.46-.34.79-.68.12-.12.15-.18.23-.28.01-.02,0-.05.02-.07.09.02.18.07.26.08.02,0,.07-.05.09-.04.23.06.42.21.35.47.28.1.55-.4.67-.42.41-.08.15.65.18.69.26.38,2.37-1.12,2.69-1.16.31-.04-.26.71-.12.69.05,0,1.8-1.21,1.84-1.22.09-.02-.14.41-.12.45.07-.05,1.01-1.09.91-.66-.05.21-.31.66-.19.58.2-.31.46-.59.65-.91.08-.13.29-.51.34-.61.56-1.32.54-3.21.53-4.63-.08.48-.86,2.73-1.21,2.92Z"/>
      <path class="cls-5" d="M16.95,23.84s.02-.09.04-.13c.01-.03.34-.07.08-.48-.02.04-.02.09-.04.13l-.15.24c-.03.06-.04.13-.06.2-.04.09-.12.19-.17.31-.05.12-.07.27-.12.39-.12.02-.11.16-.15.24-.03.06-.03.14-.06.2-.19.35-.58.91-.82,1.24-.08.11-.12.3-.36.24,0-.06.05-.13.06-.2.11-.42.24-.83.33-1.26.03-.16.05-.32.08-.48.1-.52.54-2.65.46-3.03-.02-.09-.04-.06-.12-.09-.1.82-.18,1.97-.43,2.73-.01.04-.03.09-.04.13-.35-.04-.69-.08-1.04-.11-.53-.06-1.07-.03-1.49-.04-.38,0-.79-.1-1.22-.09-.26,0-1.71.21-1.77.15-.04-.04.13-.55.11-.68-.02,0-.04-.02-.07-.02-.18-.01-.37-.04-.54-.1l-.07-.02c-.06-.03-.14-.03-.2-.06-.48-.27-3.02-3.22-3.46-3.82-1.46-2-.68-2.45-.76-4.7-.02-.61-.14-1.53-.23-2.14-.14-.9-.55-.76-.18-1.92.03-.11.06-.22.1-.33.03-.08.12-.16.15-.24,0-.01.08-.05.11-.11.35-.86.65-1.49,1.09-2.31.15-.28.32-.58.48-.85-.38.19-.32.44-.53.76-.53.82-.75,1.33-1.13,2.22-.02.04-.1.12-.15.24-.19.46-.35.95-.52,1.41-.05.13-.08.26-.12.39-.07.19-.12.39-.19.59-.07.22-.14.43-.21.65-.12.39-.26.78-.37,1.17v.22c-.07.26-.18.52-.24.78-.47,1.83-.83,3.68-1.17,5.54-.02.13-.17,1.61.06.27.02-.07.03-.23.13-.17.07,1.08.72,2.2,1.52,2.92.09.08.24.18.35.25.5.34.22,0,.4-.59.03-.09.21-.69.37-.6.25.14.52,1.95,1.11,2.07.09-.15.28-.92.47-.93.07,0,.85.62,1.08.77.45.29,1.11.3.91,1l.08-.05c.2-.31,0-.75.25-1.03.26-.29,2.11-.53,2.54-.52.02,0,.04.02.07.02.05,0,.1,0,.15-.02.55-.03,1.11-.06,1.67-.05.43.01,1.27.02,1.49.04.23.03.76.17,1,.24-.09.14,0,.4-.01.5-.07.38-.24.85-.33,1.26-.05.22-.15.43-.21.65.21.08.27-.14.36-.24.11-.12.19-.3.27-.41.33-.42.59-.75.82-1.24.03-.06.03-.14.06-.2,0-.02.01-.04.02-.07.59.14.31.13.27.51.25.13.22-.37.25-.57.03-.19.23-.42,0-.43-.03.13-.09.26-.12.39-.36-.11-.24-.05-.07-.45.05-.12.12-.21.17-.31ZM9.72,24.14c-.1.11-.95.21-1.17.38-.5.41-.11.78-1.22.23-.45-.23-.94-1.08-1.4-.64-.2.2-.06.56-.39.34-.5-.32-.57-2.98-1.39-1-.06.14-.1.31-.14.46-.28,0-.39-.7-.42-.72-.05-.05-.11.36-.14.33-2.24-2.09-1.05-5.59-.39-8.22.09-.36.93-3.47,1.12-3.44.2.03.52,2.15.54,2.44.19,2.55-.75,2.93.89,5.18.7.96,2.57,3.3,3.5,3.9.25.16,1.05.25.59.76Z"/>
      <path class="cls-5" d="M7.29,13.98l.02-.07s-.01.05-.02.07Z"/>
      <path class="cls-4" d="M15.21,12.19c-.18.26-.09,1.76-.64,1.45,0,.11-.04.14.07.24.2.06.29.1.5.01,0,0,.05-.03.16-.45.18-.73-.07-1.19-.09-1.24Z"/>
      <path class="cls-5" d="M12.26,12.11c.26-.34,1.29-1.02,2.52-1.06,0,.09-1.05.26-1.48.46-.61.29-.92.68-1.04.59Z"/>
    </g>
  </g>
</svg>