<?xml version="1.0" encoding="UTF-8"?>
<svg id="Ebene_1" data-name="Ebene 1" xmlns="http://www.w3.org/2000/svg" viewBox="0 0 30 30">
  <defs>
    <style>
      .cls-1 {
        fill: #009333;
      }

      .cls-2 {
        fill: #fbe4de;
      }

      .cls-3 {
        fill: #5d8dc7;
      }

      .cls-4 {
        fill: #911543;
      }

      .cls-5 {
        fill: #a7bbd5;
      }

      .cls-6 {
        fill: #006a41;
      }

      .cls-7 {
        fill: #d43561;
      }

      .cls-8 {
        fill: #394f75;
      }

      .cls-9 {
        fill: #3e2f2a;
      }

      .cls-10 {
        fill: #edf5f9;
      }

      .cls-11 {
        fill: #7ba3d5;
      }

      .cls-12 {
        fill: #c2d1e6;
      }

      .cls-13 {
        fill: #5d549e;
      }

      .cls-14 {
        fill: #afc7e5;
      }

      .cls-15 {
        fill: #cec7e3;
      }

      .cls-16 {
        fill: #7e7bb8;
      }

      .cls-17 {
        fill: #f4b6c7;
      }

      .cls-18 {
        fill: #ecc8b7;
      }

      .cls-19 {
        fill: #fdfdfd;
      }
    </style>
  </defs>
  <g>
    <g>
      <path class="cls-4" d="M23.5,28.55c-2.32-5.23,8.71-9.93,5.13-18.45-1.21-2.87-6.02-7.48-11.33-8.73C8.5-.7.41,6.18.33,6.75s.42.54.42.54c.4.21.16.31.31.51.49.65,1.53,1.72,1.84,2.44.07.16.08.23,0,.4.08.15.17.45.26.61.01.03.02.06.04.09.03.05.09.12.13.2.01.03.02.06.04.09.16.09.13.3.15.35.02.03.11.08.16.14.14.16.07.17.07.18.03.05.25.02.13.2.01.01.05,0,.06.02.02.03.02.07.04.09.24.34.62,1.1.83,1.5.05.09.23.18.21.38.04.02.1.12.16.14.15-.38.32-.33.13-.93-.03-.09-.44-.59-.24-.57.06,0,.17.27.22.05.09-.38-.08-1.23.07-1.88.08-.33.87-2.61.98-2.69.29-.19,1.38.61,1.65.73.06.03.19-.12.3-.07.14.05.39.36.59.46.18.09.37.07.49.13.12.06.14.25.29.33.25.13.24-.18.42-.11.08-.12.32-.55.43-.63.01,0,.13.15.15.14.16-.1.08-.1.35-.22.01,0,.02-.17.11-.18.17-.03.25.16.43.12.15-.04,1.11-.91,1.37-1.05.02,0,.16.13.36.05.24-.1.69-.5,1-.51s.38.19.52.19c.19,0,.37-.11.56-.09.57.06,1.65.59,2.17.91.32.2.5.67,1.01.7l-.21.21c.26.05.5.33.62.58.11.23.04.43.06.47.58,1.25.98,2.27.96,3.75,0,.12-.25.66-.1.78.2.15.47-.55.52-.58.04-.02.78-.1.83-.09,2.33.38,1.91,3.23.84,4.78-.28.41-1,.8-.65,1.2-.13-.21-.7-.03-.78.1-.11.2.21.51.24.65.23,1.23-.8,2.55-2.01,2.16-.26-.08-.85-.57-.98-.42-.07.08-.45,1.7-.39,1.86,0,.02-.19.81-.18.83.12.17.48.2.73.37.19.13-.35,1.05-.25,1.89,0,.07,1.29.11,2.48-.47.38-.18,1.47-.09,2.09.16.52.21.74.41,1.15.83Z"/>
      <g>
        <path class="cls-7" d="M25.81,20.85c1.48-8.13-2.04-9-3.83-10.93-.16-.17-1.3-1.15-1.28-1.23.07-.22,1.38.14,1.55.15.09,0,.09.1.13-.09l-1.9-.99,2.02.52h.67c-.96-.78-1.95-1.68-2.99-2.3-.81-.49-1.86-.77-2.55-1.2-.08-.05.12-.21-.05-.24-.06-.01-.28.18-.37.17-1.13-.04-1.66-.22-2.86.01-.48.09-2.25.77-2.5.76-.11,0-.03-.33-.16-.21-.03.03-.03.19-.16.26-2.9,1.46-6.14.97-9.23,1.33-.48.06-1.26.08-1.57.43-.08-.04-.16-.06-.24-.1.09-.79.79-1.32,1.39-1.82C4.24,3.37,9.34,1.38,12.35,1.07c4.26-.44,8.28.96,11.6,3.85l-2.22-.87c.11-.15-.37-.36-.44-.4-.3-.14-.75-.25-1.01-.41-.07-.04.07-.18,0-.23-.1-.08-.53-.16-.56-.23-.04-.07.21-.19-.1-.4-.49-.34-2.08-.5-2.24-.62-.07-.05.08-.17,0-.22-.27-.2-2.85,0-3.16.54.6-.04,1.18.04,1.77.16.47.1,2.42.56,2.7.79.08.06.2.52.18.54-.13.18-.78.22-.96.59-.25.5.63.08.95.02.84.25,2.07.32,2.83.78,1,.6,2.22,1.42,3.1,2.32.13.14.98,1.08.99,1.16,0,.07-.15.23-.17.4-.01.12.21.14.09.3-.29-.18-.65-.31-.97-.37-.12-.03-.55-.18-.61.02,2.36,1.14,3.53,5.89,3.41,8.61.09-2.14,1.66-3.31.61-6.53-.03-.1-.01-.33-.14-.53-.15-.24-.54-.48-.63-.7-.06-.13.01-.38-.16-.71-.81-1.58-2.73-3.07-4.21-3.87l.87.06c1.38.72,2.6,2,3.71,3.18.02.02.1.02.12.05.87.92,1.53,3.47,1.5,5.74-.05,3.12-3.4,6.75-3.4,6.75ZM7.25,3.45c-.17.04-.52-.11-.8-.07-.6.09-3.27,1.75-3.78,2.19-1.1.96.83.25,1.24,0,1.02-.59,1.24-1.1,2.57-1.41.22-.05.56.09.76.04,1.53-.38,3.13-1.31,4.74-1.66.32-.07.69-.18,1.01-.2.17,0,.29.19.34.18.05,0,.52-.51.71-.62.4-.23.85-.3,1.22-.56-2.32.23-4.88.44-7.03,1.44-.09.04-.24-.05-.28-.03-.19.1-.5.64-.7.69Z"/>
        <path class="cls-17" d="M27.69,8.35c-1.19-1.55-3.27-3.14-3.73-3.43l-2.22-.87c.11-.15-.37-.36-.44-.4-.3-.14-.75-.25-1.01-.41-.07-.04.07-.18,0-.23-.1-.08-.53-.16-.56-.23-.04-.07.21-.19-.1-.4-.49-.34-2.08-.5-2.24-.62-.07-.05.08-.17,0-.22-.27-.2-2.85,0-3.16.54.6-.04,1.18.04,1.77.16.47.1,2.42.56,2.7.79.08.06.2.52.18.54-.13.18-.78.22-.96.59-.25.5.63.08.95.02.84.25,2.07.32,2.83.78,1,.6,2.22,1.42,3.1,2.32.13.14.98,1.08.99,1.16,0,.07-.15.23-.17.4-.01.12.21.14.09.3-.29-.18-.65-.31-.97-.37-.12-.03-.55-.18-.61.02,2.36,1.14,3.53,5.89,3.41,8.61.09-2.14,1.66-3.31.61-6.53-.03-.1-.01-.33-.14-.53-.15-.24-.54-.48-.63-.7-.06-.13.01-.38-.16-.71-.81-1.58-2.73-3.07-4.21-3.87l.87.06c.39.2.77.45,1.13.73.93.71,3.87,4.03,2.68,2.48ZM7.25,3.45c-.17.04-.52-.11-.8-.07-.6.09-3.27,1.75-3.78,2.19-1.1.96.83.25,1.24,0,1.02-.59,1.24-1.1,2.57-1.41.22-.05.56.09.76.04,1.53-.38,3.13-1.31,4.74-1.66.32-.07.69-.18,1.01-.2.17,0,.29.19.34.18.05,0,.52-.51.71-.62.4-.23.85-.3,1.22-.56-2.32.23-4.88.44-7.03,1.44-.09.04-.24-.05-.28-.03-.19.1-.5.64-.7.69Z"/>
      </g>
    </g>
    <path class="cls-9" d="M27.11,7.51s-.11-.08-.16-.14c-.03-.03-.09-.07-.16-.14-.02-.02-.02-.07-.04-.09-.01-.01-.05,0-.06-.02-.03-.04-.06-.08-.1-.11-.11-.12-.23-.24-.35-.36-.18-.19-.41-.35-.54-.58-.03-.02-.09-.03-.12-.05-.09-.06-.09-.11-.1-.11-.02-.01.1,0-.19-.22-.49-.37-.94-.8-1.43-1.16l-.16-.14c-.07-.05-.15-.11-.22-.16-.64-.46-1.65-1.18-2.32-1.53-.04-.02-.08-.03-.12-.05-.38-.2-.85-.33-1.25-.51-.02,0-.04-.02-.06-.02-.41-.18-.84-.43-1.23-.57-1.24-.45-2.48-.57-3.77-.73-.09-.01-.16-.01-.26-.03-.02,0-.04-.02-.06-.02-.03,0-.06.02-.08.04-.04-.01-.08-.04-.12-.05-.16-.02-.19.02-.28.03-.14,0-.28.04-.43.05-.16.01-.32,0-.49.02-.05,0-.09.01-.14.02-1.2.12-2.14.3-3.3.63l-.14.02c-.1.03-.21.06-.31.09l-.08.04c-.13.04-.26.09-.39.13l-.16.08c-1.65.58-3.69,1.42-5.2,2.33-.16.1-.3.22-.46.32-.03.02-.06.02-.08.04-.18.12-.48.29-.62.4-.18.14-.6.39-.73.51-.06.05-.72.74-.76.78-.03.03-.31.49-.32.52-.02.04-.04.09-.05.13-.03.19.1.31.18.44,0-.04.04-.09.05-.13.09-.79.79-1.32,1.39-1.82C4.29,3.37,9.39,1.38,12.4,1.06c4.26-.44,8.28.96,11.6,3.85l-2.22-.87c-1.27-.58-2.55-.24-3.8.13-.25.5.63.08.95.02,2.01-.35,3.15-.02,4.99.94,1.38.72,2.6,2,3.71,3.18l.02-.06s.03-.06.02-.06c-.09-.13-.45-.52-.58-.67Z"/>
  </g>
  <path class="cls-5" d="M26.81,7.2l-.04-.09s.02.07.04.09Z"/>
  <path class="cls-9" d="M.77,7.24c-.08-.04-.16-.06-.24-.1,0,.04-.04.08-.05.13.35.55,1.11,1.1,1.28,1.76.49.56.77.86,1.15,1.56.08-.16.07-.23,0-.4-.31-.72-1.35-1.79-1.84-2.44-.15-.2.09-.31-.31-.51Z"/>
  <path class="cls-13" d="M3.35,11.5c-.04-.08-.11-.15-.13-.2l.13.2Z"/>
  <path class="cls-13" d="M3.99,12.56s-.02-.06-.04-.09l.04.09Z"/>
  <path class="cls-18" d="M13.59,8.24l.04.09c.09-.1.32-.13.37-.28-.16,0-.28.13-.41.2Z"/>
  <path class="cls-10" d="M8.99,28.21s.04.06.04.09l.18.07c.04-.05.09-.03.14-.02,1.21-.2,2.44-.26,3.67-.33.02-.7-1.99-1.94-2.1-2.16-.03-.07.11-.22.21-.2-.34.06-1.38.16-1.57.45-.21.33-.24,1.67-.57,2.1Z"/>
  <path class="cls-19" d="M8.87,28.16s-.06.02-.08.04l.24.1s-.01-.07-.04-.09c-.03-.02-.09-.04-.12-.05Z"/>
  <path class="cls-12" d="M17.32,25.91c-1.66-.63-4.46-.57-6.19-.26-.1-.02-.24.13-.21.2.1.23,2.12,1.46,2.1,2.16,1.56-.08,3.13-.12,4.69-.13-.02-.29.37-1.52.32-1.65-.04-.1-.57-.28-.71-.33Z"/>
  <path class="cls-5" d="M18.41,21.18c.08.4,1.18.18,1.45.26.25.07.56.42.61.26.29-1-2.28-1.59-2.06-.52Z"/>
  <path class="cls-18" d="M18.21,20.56c-.55.49-.71,1.32-.37,2-.25.74-.32,1.52-.47,2.28-.06.29-.12.58-.18.87-1.89-.41-3.15-.56-5.09-.41-.18.01-1.45.29-1.47.22,0-.04.19-.75.22-.78s.57-.07.76-.14c1.59-.58,4.53-1.79,5.58-3.19.03-.04.48-.71.18-.58-.06.03-.68.86-.91,1.06-1.03.9-4,2.47-5.31,2.6,1.18-.83,2.15-1.71,3.08-2.85,1.14-1.4,1.82-3.01,2.83-4.33.72-.94,1.99-1.57,2.6-2.69-.06.72-.04,1.48-.49,2.13.13.08.12.03.19-.06.58-.79.91-2.42,2.29-1.84,2.35.99.76,5.56-1.52,5.68-.56-.47-1.36-.47-1.91.02ZM20.95,19.38c-.06-.15-1.45.88-1.36-.38.08-1.11.9-.64,1.09-1.16.12-.33-.34-.98-.32-1.16.03-.25.56-.91.81-.96,1.03-.24.76,1.95.99,1.82.31-.17-.26-3.14-1.54-1.61-.89,1.05.06,1.38-.11,1.85-.2.54-1.23-.09-1.08,1.42.06.65.44.68.96.58.09-.02.63-.25.58-.39Z"/>
  <path class="cls-14" d="M5.73,18.58l.02-.06c-.07.01-.03.03-.02.06Z"/>
  <path class="cls-19" d="M13.06,13.55c.22.01,1.31,0,1.6-.08-.1.28-.2.55-.3.83-.21.08-.14.32-.16.45-.06.36-.12.69-.1,1.05-.05,0-.27-.11-.36-.15-.25-.1-.51-.35-.81-.4-.16-.27-.23-.93-.23-1.26v-.15s.34-.29.36-.28Z"/>
  <path class="cls-10" d="M7.62,13.67c-.08-.12-.86-.03-.91.05-.07.1-.12,1.16-.16,1.41-.04.32,0,.65-.06.92.68.44.73.23.7-.44,0-.13-.01-.23,0-.37,0-.06-.05-.14,0-.21,0-.05-.02-.11-.01-.15.04-.39.39-1,.41-1.14,0-.02.03-.06.02-.06Z"/>
  <path class="cls-19" d="M15.73,13.55c.11.19.14.68.09.91,0,.02-.02.04-.02.06.17.03.09.14.07.25-.08.51-.19.97-.46,1.41.21,0,.32-.25.55-.21.09-.34.26-.68.42-.99-.02-.02-.04-.06-.04-.09.1-.4.34-.82.43-1.21-.36-.09-.66-.26-1.05-.13Z"/>
  <path class="cls-9" d="M15.99,11.47c-.67-.43-4.35,1.68-4.22,2.07,0,.02.14.04.18.07.85-.65,1.78-1.16,2.75-1.58.37-.16.89-.43,1.27-.5l.02-.06Z"/>
  <path class="cls-18" d="M9.22,16.53s-.45.28-.47.32c-.02.07.24.96.35.99.64.17.94-1.48.12-1.31Z"/>
  <path class="cls-18" d="M7.47,12.37l.7,1.09c.09.23.53.32.6.61.23-.01.22-.22.22-.42-.55-.49-.86-.93-1.53-1.28Z"/>
  <path class="cls-9" d="M6.56,12.07s.04.02.06.02c.2.03.43.11.62.18l.06.02c.06.03.12.04.18.07.67.35.97.79,1.53,1.28,0-.43-.46-.9-.76-1.11-.02-.01-.02-.08-.04-.09-.35-.22-1.24-.58-1.64-.38Z"/>
  <path class="cls-10" d="M8.17,14.04c-.66-.86-.65.54-.19.85.17.12.16.03.22-.19,0-.02,0-.3,0-.37,0-.06-.05-.14,0-.21-.01-.03-.02-.07-.04-.09Z"/>
  <path class="cls-9" d="M7.2,15.61c.02.67-.03.88-.7.44,0,.03-.49.35,0,.42s.87-.29,1.25-.49c0-.03,0-.08-.04-.09-.04-.01-.11-.05-.12-.05-.03.01-.32.53-.31-.27l-.08.04Z"/>
  <path class="cls-9" d="M16.36,11.4l-.02.06c.37-.03,1.03.17,1.29.02l.02-.06c-.53-.1-.79-.09-1.29-.02Z"/>
  <path class="cls-9" d="M12.93,15.25c.26.43.34.33.77.53l.05-.13c-.25-.1-.51-.35-.81-.4Z"/>
  <path class="cls-4" d="M11.06,19.15c-.05-.07-1.43-.28-1.6-.29-.09,0-.76.02-.8.03-.82.19-.04,1.24,1.09.89.3-.1.42-.26.6-.34.13-.06.83-.12.72-.29ZM9.71,19.69c-.3.13-1.17-.03-1.07-.25.03-.07,1.29-.1,1.47-.1,0,.1-.35.33-.4.35Z"/>
  <path class="cls-9" d="M6.61,12.1s-.04-.02-.06-.02c-.27-.03-.62-.12-.79.19l.85-.16Z"/>
  <path class="cls-9" d="M18.01,11.56l-.02.06c.21.07.41.13.62.18-.04-.39-.51-.22-.6-.24Z"/>
  <path class="cls-9" d="M16.36,11.4c-.1.01-.31-.16-.37.07l-.02.06c.09-.02.3-.06.37-.07l.02-.06Z"/>
  <path class="cls-9" d="M8.79,16.33c-.14.02-.69,0-.74.17-.02.06.45,1.08.52,1.2l.06.02c-.02-.84-.7-.93.19-1.3.05-.02.12-.01.16-.08l.02-.06c-.1-.06-.19.05-.22.05Z"/>
  <path class="cls-9" d="M17.65,11.41l-.02.06c.12.05.24.1.36.15l.02-.06c-.12-.03-.25-.12-.36-.15Z"/>
  <path class="cls-9" d="M21.22,14.56s-.79.07-.83.09c-.05.03-.32.73-.52.58-.15-.11.1-.66.1-.78.02-1.48-.38-2.49-.96-3.75-.02-.05.05-.24-.06-.47-.12-.25-.35-.52-.62-.58l.21-.21c-.51-.03-.69-.51-1.01-.7-.52-.32-1.59-.85-2.17-.91-.19-.02-.37.09-.56.09-.14,0-.21-.2-.52-.19-.31.01-.76.41-1,.51-.2.08-.34-.06-.36-.05-.26.14-1.22,1.01-1.37,1.05-.18.04-.26-.15-.43-.12-.08.01-.09.18-.11.18-.27.12-.2.12-.35.22-.03.02-.14-.15-.15-.14-.11.08-.35.51-.43.63-.18-.07-.17.24-.42.11-.15-.08-.18-.27-.29-.33-.13-.06-.32-.04-.49-.13-.21-.1-.45-.41-.59-.46-.12-.04-.25.1-.3.07-.27-.12-1.36-.92-1.65-.73-.12.08-.9,2.36-.98,2.69-.15.64.02,1.49-.07,1.88-.05.21-.16-.05-.22-.05-.2-.02.21.48.24.57.19.61.02.56-.13.93,0,.02-.02.04-.02.06,0,.01.05.1.01.15.18.11.33.79.38,1,.06.28.17.99.18,1.26,0,.11-.06.25-.05.34,0,.19,0,.39,0,.58,0,.19-.06.43-.06.56,0,.46-.04.89.07,1.34.12.5.37.83.66,1.21.31.41.73.8,1.09,1.17.3.32.68.78.99,1.06.36.32,1.14.98,1.53,1.19.18.1.74.21.76.25.01.04-.2.77-.23.81-.1.15-.87.14-1.07.53-.22.43-.21,1.52-.52,2.03-.94.05-1.88.12-2.81.23.21.05.36.1.59.11,3.14.09,7.12-.67,10.33-.4,1.48.12-.68.64.15.69.19.01,1.15-.56,1.54-.7.29-.01.62-.16.77-.2.4-.13.66-.2,1.13-.33-.03,0-.09-.05-.12-.05-.02,0-.04-.03-.06-.02-.42.04-.81.16-1.17.27-.1.03-.45.16-.75.28-.32-.02-.64-.09-.87-.08-.1,0-.19,0-.27,0-2.11.01-4.22.05-6.32.13-.66.03-1.32.06-1.98.09.28-.5.32-1.7.52-2.01.19-.29,1.23-.39,1.57-.45,1.73-.31,4.53-.37,6.19.26.14.05.67.23.71.33.05.12-.34,1.36-.32,1.65.06,0,.13,0,.2,0-.07-.27.29-1.7.22-1.79-.07-.1-.55-.2-.7-.3-.03-.02-.11-.03-.12-.05,0-.02.04-.09.05-.13,0-.16.12-.79.29-.61-.01-.01-.03-.06-.04-.09-.06-.16.2-1.71.27-1.79.14-.15.75.33,1.01.41,1.21.38,2.23-1.05,2-2.27-.03-.14-.36-.41-.25-.61.08-.13.71-.27.84-.07-.35-.4.38-.77.66-1.19,1.07-1.55,1.42-4.49-.91-4.87ZM20.12,20.53c.48.41.69,1.09.52,1.72-.17.63-.69,1.09-1.3,1.16-.62.07-1.21-.27-1.5-.86-.25.74-.32,1.52-.47,2.28-.06.29-.12.58-.18.87-1.89-.41-3.15-.56-5.09-.41-.18.01-1.45.29-1.47.22,0-.04.19-.75.22-.78.03-.03.57-.07.76-.14,1.59-.58,4.53-1.79,5.58-3.19.03-.04.48-.71.18-.58-.06.03-.68.86-.91,1.06-1.03.9-4,2.47-5.31,2.6-1.35.13-2.83-1.49-3.77-2.5-1.4-1.51-1.3-1.44-1.64-3.41,0-.03-.05-.05.02-.06.13-1.03.18-2.1.11-3.14-.09-1.33-.73-3.15-.29-4.4l.83-2.32c.37-.02,1.95,1.19,2.06,1.2.08.01.05-.18.13-.17.11.01.42.49.62.55.2.06.05-.2.24-.12.21.09.03.82.58.01.03.02.09.03.12.05.17.15.48-.35.69-.59l.06.02c-.34.94,1-.6,1.26-.65.12-.02-.1.33.11.26.03,0,.31-.4.4-.46.24-.17.65-.39.91-.53.13-.07.25-.19.41-.2-.05.16-.29.18-.37.28-.04.05-.27.3-.08.33,1.02-.69,2.22-.6,3.27.01.07.04-.07.17,0,.23.05.04.67.32.84.41,0,.07.05.09.1.11.39.2.6.42.9.73h-.14c.12.47.52.89.7,1.32.03.07.03.14.06.21l-.11-.08c-.09.18.52,1.62.57,2.07.04.41-.06.61-.08.96-.06.72-.04,1.48-.49,2.13.13.08.12.03.19-.06.58-.79.91-2.42,2.29-1.84,2.35.99.76,5.56-1.52,5.68Z"/>
  <path class="cls-9" d="M8.17,14.04c.12-.35.85.94.6.03-.08-.29-.51-.38-.6-.61-.56-.42-1.32-.24-1.95-.09l.32,1.76c.04-.25.09-1.31.16-1.41.05-.07.82-.17.91-.05l-.02.06c-.01.15-.37.75-.41,1.14.24-.2.11-.43.41-.2.25.19.33.42.36.73.02.19.08.19-.02.43,0,.01-.23.01-.11.1.04-.03.1-.04.16-.08.06-.04.14-.03.25-.12l.02-.06c-.13-.08,0-.62,0-.95,0-.15.04-.15,0-.37-.02-.09.03-.09-.05-.24-.06.08,0,.16,0,.21,0,.07.01.35,0,.37-.06.22-.05.3-.22.19-.47-.31-.48-1.71.19-.85Z"/>
  <path class="cls-16" d="M9.02,16.28l-.02.06.02-.06Z"/>
  <path class="cls-16" d="M8.58,17.7s.14.24.06.02l-.06-.02Z"/>
  <path class="cls-2" d="M19.73,13.67c-.05-.45-.66-1.9-.57-2.07l.11.08c-.03-.07-.03-.14-.06-.21-.17-.42-.58-.84-.7-1.3h.14c-.3-.32-.51-.54-.9-.75-.05-.02-.1-.04-.1-.11-.17-.09-.79-.37-.84-.41-.06-.05.07-.19,0-.23-1.05-.62-2.25-.71-3.27-.01-.18-.03.04-.28.08-.33l-.04-.09c-.27.14-.68.36-.91.53-.09.06-.37.46-.4.46-.21.07,0-.29-.11-.26-.26.06-1.6,1.6-1.26.65l-.06-.02c-.21.24-.52.75-.69.59-.03-.02-.09-.03-.12-.05-.54.8-.36.07-.58-.01-.19-.08-.04.18-.24.12-.2-.06-.51-.53-.62-.55-.08-.01-.05.18-.13.17-.12-.01-1.69-1.22-2.06-1.2l-.83,2.32c-.45,1.25.2,3.07.29,4.4.07,1.04.02,2.1-.11,3.14l-.02.06c.33,1.97.24,1.9,1.64,3.41.93,1.01,2.42,2.63,3.77,2.5,1.18-.83,2.15-1.71,3.08-2.85,1.14-1.4,1.82-3.01,2.83-4.33.72-.94,1.99-1.57,2.6-2.69.03-.35.12-.56.08-.96ZM9.1,17.83c-.1-.03-.37-.92-.35-.99.01-.04.44-.31.47-.32.82-.17.52,1.48-.12,1.31ZM7.84,15.94s-.06.03-.08.04c-.38.2-.77.56-1.25.49-.49-.07,0-.39,0-.42.05-.28.01-.6.06-.92l-.32-1.76c.62-.15,1.39-.33,1.95.09l-.7-1.09c-.06-.03-.12-.05-.18-.07-.01,0-.04-.02-.06-.02-.19-.07-.42-.15-.62-.18l-.85.16c.16-.31.52-.22.79-.19.4-.21,1.29.16,1.64.38l.04.09c.31.22.76.68.76,1.11,0,.2.01.41-.22.42.24.92-.48-.37-.6-.03.01.02.02.06.04.09.08.15.03.15.05.24.04.21,0,.21,0,.37,0,.33-.13.86,0,.95.2-.08.02.03-.02.06-.11.08-.18.08-.25.12-.06.04-.12.05-.16.08ZM8.79,16.33s.13-.12.22-.05l-.02.06c-.04.07-.11.06-.16.08-.89.37-.22.47-.19,1.3.08.21-.03.03-.06-.02-.08-.12-.54-1.14-.52-1.2.05-.17.6-.15.74-.17ZM10.35,19.44c-.18.08-.3.24-.6.34-1.13.36-1.91-.7-1.09-.89.04,0,.71-.04.8-.03.18.01,1.56.22,1.6.29.11.17-.58.23-.72.29ZM17.99,11.62c-.12-.04-.24-.1-.36-.15-.26.16-.93-.05-1.29-.02-.07,0-.27.05-.37.07-.38.07-.9.34-1.27.5-.26.27-.6.64-.86.89.46-.09.76-.25,1.24-.22.02,0,.08,0,0,0-.46.12-.82.23-1.25.44.38-.1,1.31-.36,1.57-.38.28-.02,2.29.17,2.35.3-.5.59-.97,1.16-1.35,1.86-.01.02-.01.04-.02.06-.16.31-.33.65-.42.99.11.02.24.12.36.15-.53.7-1.95-.03-2.61-.33-.42-.2-.51-.1-.77-.53-.16-.27-.23-.93-.23-1.26,0-.04.03-.06-.01-.15l-.06-.02c-.18.11-.52-.07-.68-.2-.04-.03-.17-.05-.18-.07-.13-.39,3.56-2.5,4.22-2.07.06-.23.27-.06.37-.07.5-.07.76-.08,1.29.02.11.02.24.12.36.15.08.02.56-.15.6.24-.21-.05-.41-.1-.62-.18Z"/>
  <path class="cls-8" d="M8.27,15.68l-.02.06s.23-.15.02-.06Z"/>
  <path class="cls-18" d="M7.29,12.3l-.06-.02s.05.02.06.02Z"/>
  <path class="cls-8" d="M8.23,12.54l-.04-.09s.02.07.04.09Z"/>
  <path class="cls-9" d="M15.4,12.76c-.26.02-1.2.28-1.57.38-.09.04-.15.08-.25.12-.07.03-.11.12-.22.05-.02.02-.06.02-.08.04l-.21.21s-.2.15-.23.21c.56-.18,1.68-.73,2.26-.54.03,0,.05-.03.08-.04.06-.02.1,0,.14-.02.21-.04,1.37.08,1.47.17.11.1,0,.24-.02.35-.09.39-.33.81-.43,1.21,0,.03.02.07.04.09.01-.02.01-.04.02-.06.38-.7.84-1.26,1.35-1.86-.06-.13-2.07-.32-2.35-.3Z"/>
  <path class="cls-11" d="M7.72,15.89s.04.05.04.09c.03-.01.06-.02.08-.04-.12-.09.1-.09.11-.1.1-.24.04-.24.02-.43l-.24.48Z"/>
  <ellipse class="cls-6" cx="19.18" cy="21.8" rx="1.52" ry="1.62" transform="translate(-.13 .12) rotate(-.35)"/>
  <path class="cls-1" d="M19.86,21.43c.25.07.56.42.61.26.29-1-2.28-1.59-2.06-.52.08.4,1.18.18,1.45.26Z"/>
  <path class="cls-6" d="M17.88,22.08c.36,1.2,2.06,1.64,2.46.59.48-1.3-2.25-.08-2.4-1.05-.09-.24-.06.44-.05.46Z"/>
  <path class="cls-9" d="M20.38,19.77c.09-.02.63-.25.58-.39s-1.45.88-1.36-.38c.08-1.11.9-.64,1.09-1.16.12-.33-.34-.98-.32-1.16.03-.25.56-.91.81-.96,1.03-.24.76,1.95.99,1.82.31-.17-.26-3.14-1.54-1.61-.89,1.05.06,1.38-.11,1.85-.2.54-1.23-.09-1.08,1.42.06.65.44.68.96.58Z"/>
  <path class="cls-15" d="M15.1,13.22s.04.02.06.02l.02-.06s-.05.03-.08.04Z"/>
  <path class="cls-15" d="M12.74,13.78l-.05.14c.25.01,1.6-.34,1.92-.43s.32-.23.49-.28c-.65-.21-1.74.38-2.36.57Z"/>
  <path class="cls-8" d="M7.6,14.68c-.14.35-.19.82,0,1.16.01,0,.08.03.12.05l.24-.48c-.03-.3-.11-.54-.36-.73Z"/>
  <path class="cls-16" d="M7.62,13.67s-.02.04-.02.06l.02-.06Z"/>
  <path class="cls-15" d="M16.79,13.33c.11.1,0,.24-.02.35-.36-.09-.66-.26-1.05-.13-.06-.1-.16-.18-.25-.25-.04-.03-.13-.04-.18-.07l.02-.06c.21-.04,1.37.08,1.47.17Z"/>
  <path class="cls-9" d="M15.96,15.97c-.23-.04-.34.2-.55.21.27-.44.37-.9.46-1.41.02-.12.11-.23-.07-.25-.02.07-.14.44-.16.45-.28.14-1.19-1.49-.44-1.64.6.37.44.47.62,1.13.05-.23.03-.72-.09-.91-.06-.1-.16-.18-.25-.25l-.18-.07.02-.06s-.08,0-.14.02l-.02.06s-.04-.02-.06-.02c-.15.05-.15.19-.43.26-.1.28-.2.55-.3.83-.05.15-.11.3-.16.44-.06.36-.12.69-.1,1.05-.05,0-.27-.11-.36-.15l-.05.13c.66.31,2.09,1.04,2.61.33-.12-.03-.25-.13-.36-.15ZM15.36,15.92c-.07.23-.15.08-.17.1-.04.04-.06.24-.09.25-.02,0-.23-.1-.3-.12-.06-.02-.13-.04-.18-.07-.23-.12-.42-.15-.36-.51.05-.18,0-.72.01-.8.08-.31.25-.63.56-.43.18.12.44.71.49.93.04.19.1.45.04.65Z"/>
  <path class="cls-18" d="M13.83,12.92c.26-.24.6-.62.86-.89-.97.41-1.9.93-2.75,1.58.16.13.5.31.68.2l.06.02c-.02.08.35-.24.37-.28l.21-.21s.06-.02.08-.04c.11.06.16-.03.22-.05.09-.04.16-.07.25-.12.43-.21.79-.32,1.25-.44-.48-.03-.78.13-1.24.22Z"/>
  <path class="cls-3" d="M7.6,14.68c-.3-.23-.17,0-.41.2,0,.04,0,.1.01.15-.05.08,0,.16,0,.21,0,.14,0,.23,0,.37l.08-.04c0,.8.28.29.31.27-.19-.34-.14-.81,0-1.16Z"/>
  <path class="cls-10" d="M15.19,13.33c-.75.15.16,1.77.44,1.64.02-.01.14-.37.16-.45,0-.02.02-.04.02-.06-.19-.65-.03-.76-.62-1.13Z"/>
  <path class="cls-8" d="M14.62,16.08c.05.03.12.06.18.07.1-.12.16-.27.22-.42,0-.02-.05-.15,0-.21l.07.17.22-.42c-.05-.22-.31-.81-.49-.93-.26.56-.24,1.14-.21,1.73Z"/>
  <path class="cls-3" d="M14.27,14.77c-.02.07.04.62-.01.8-.06.36.14.39.36.51-.03-.59-.05-1.18.21-1.73-.31-.2-.49.12-.56.43Z"/>
  <path class="cls-3" d="M15.32,15.27l-.22.42-.07-.17c-.06.06,0,.2,0,.21l.17.29s.1.13.17-.1c.06-.19,0-.45-.04-.65Z"/>
  <path class="cls-5" d="M15.02,15.73c-.06.15-.12.3-.22.42.07.02.28.13.3.12.03-.01.05-.22.09-.25l-.17-.29Z"/>
  <path class="cls-7" d="M10.11,19.34c-.18,0-1.44.02-1.47.1-.1.22.77.38,1.07.25.05-.02.4-.24.4-.35Z"/>
  <path class="cls-9" d="M17.93,21.61c-.09-.24-.06.44-.05.46.36,1.2,2.06,1.64,2.46.59.48-1.3-2.25-.08-2.4-1.05Z"/>
  <path class="cls-9" d="M15.3,13.22l.18.07s-.13-.04-.18-.07Z"/>
  <path class="cls-7" d="M9.73,19.19c-.12,0-.96.02-.98-.02-.06-.14.51-.26.72-.19.03.01.26.15.26.21Z"/>
</svg>