<?xml version="1.0" encoding="UTF-8"?>
<svg id="Ebene_1" data-name="Ebene 1" xmlns="http://www.w3.org/2000/svg" xmlns:xlink="http://www.w3.org/1999/xlink" viewBox="0 0 35.68 30">
  <defs>
    <style>
      .cls-1 {
        fill: #060302;
      }

      .cls-2 {
        fill: #de6e33;
      }

      .cls-3 {
        fill: #fbec76;
      }

      .cls-4 {
        fill: #c8c8d1;
      }

      .cls-5 {
        fill: #010101;
      }

      .cls-6 {
        fill: #faf9fc;
      }

      .cls-7 {
        fill: #716f67;
      }

      .cls-8 {
        fill: #5c1b0b;
      }

      .cls-9 {
        fill: #2c0a04;
      }

      .cls-10 {
        fill: #e68699;
      }

      .cls-11 {
        fill: #f5c4aa;
      }

      .cls-12 {
        fill: #f4bca3;
      }

      .cls-13 {
        fill: #e388a7;
      }

      .cls-14 {
        fill: #584071;
      }

      .cls-15 {
        fill: #bfb574;
      }

      .cls-16 {
        fill: #2a5c3b;
      }

      .cls-17 {
        fill: #e1764e;
      }

      .cls-18 {
        fill: #a1a3ca;
      }

      .cls-19 {
        fill: #8786b4;
      }

      .cls-20 {
        fill: #8b3414;
      }

      .cls-21 {
        fill: #694c74;
      }

      .cls-22 {
        fill: #fbf8fd;
      }

      .cls-23 {
        fill: #295d38;
      }

      .cls-24 {
        fill: #a99b5a;
      }

      .cls-25 {
        fill: #88817f;
      }

      .cls-26 {
        fill: #142911;
      }

      .cls-27 {
        fill: #192d13;
      }

      .cls-28 {
        fill: #661009;
      }

      .cls-29 {
        fill: #050202;
      }

      .cls-30 {
        fill: #492d36;
      }

      .cls-31 {
        fill: #644446;
      }

      .cls-32 {
        fill: #493511;
      }

      .cls-33 {
        fill: #382957;
      }

      .cls-34 {
        fill: #867e8f;
      }

      .cls-35 {
        fill: #c9c7cf;
      }

      .cls-36 {
        fill: #499968;
      }

      .cls-37 {
        fill: #3c0904;
      }

      .cls-38 {
        fill: #713520;
      }

      .cls-39 {
        fill: #301e12;
      }

      .cls-40 {
        fill: #592f16;
      }

      .cls-41 {
        fill: #f5c3b5;
      }

      .cls-42 {
        fill: #3a0f07;
      }

      .cls-43 {
        fill: #f6f6fa;
      }

      .cls-44 {
        fill: #1c3718;
      }

      .cls-45 {
        fill: #e48186;
      }

      .cls-46 {
        fill: #6e2f15;
      }

      .cls-47 {
        fill: #e06f35;
      }

      .cls-48 {
        fill: #704d76;
      }

      .cls-49 {
        fill: #3f1607;
      }

      .cls-50 {
        fill: #d96d33;
      }

      .cls-51 {
        fill: #372116;
      }

      .cls-52 {
        fill: #401b0c;
      }

      .cls-53 {
        fill: #6f2d13;
      }

      .cls-54 {
        fill: #2a5e3a;
      }

      .cls-55 {
        fill: #aea25a;
      }

      .cls-56 {
        fill: #5f3216;
      }

      .cls-57 {
        fill: #499767;
      }

      .cls-58 {
        fill: #772b14;
      }

      .cls-59 {
        fill: #893214;
      }

      .cls-60 {
        fill: #be845d;
      }

      .cls-61 {
        fill: #6b361e;
      }

      .cls-62 {
        fill: #f3bbae;
      }

      .cls-63 {
        fill: #667be4;
      }

      .cls-64 {
        fill: #160803;
      }

      .cls-65 {
        fill: #5a2f16;
      }

      .cls-66 {
        fill: url(#Unbenannter_Verlauf_160);
      }

      .cls-67 {
        fill: url(#Unbenannter_Verlauf_157);
      }

      .cls-68 {
        fill: url(#Unbenannter_Verlauf_161);
      }

      .cls-69 {
        fill: #010100;
      }

      .cls-70 {
        fill: #2b5c3b;
      }

      .cls-71 {
        fill: #3d1206;
      }

      .cls-72 {
        fill: #923a1a;
      }

      .cls-73 {
        fill: #f5c2a7;
      }

      .cls-74 {
        fill: #f5f4fa;
      }

      .cls-75 {
        fill: #5d3c25;
      }

      .cls-76 {
        fill: #5d2b16;
      }

      .cls-77 {
        fill: #754c38;
      }

      .cls-78 {
        fill: #67466a;
      }

      .cls-79 {
        fill: #3d230a;
      }

      .cls-80 {
        fill: #402819;
      }

      .cls-81 {
        fill: #583950;
      }

      .cls-82 {
        fill: #3242a0;
      }

      .cls-83 {
        fill: #e0723e;
      }

      .cls-84 {
        fill: #5f4135;
      }

      .cls-85 {
        fill: #7d3b1b;
      }
    </style>
    <linearGradient id="Unbenannter_Verlauf_161" data-name="Unbenannter Verlauf 161" x1="214.77" y1="555.53" x2="219.7" y2="804.06" gradientTransform="translate(1.1 -11.6) scale(.04)" gradientUnits="userSpaceOnUse">
      <stop offset="0" stop-color="#e37e6c"/>
      <stop offset="1" stop-color="#d06a2e"/>
    </linearGradient>
    <linearGradient id="Unbenannter_Verlauf_160" data-name="Unbenannter Verlauf 160" x1="825.11" y1="471.04" x2="832.14" y2="598.87" gradientTransform="translate(1.1 -11.6) scale(.04)" gradientUnits="userSpaceOnUse">
      <stop offset="0" stop-color="#a55877"/>
      <stop offset="1" stop-color="#8d4b4b"/>
    </linearGradient>
    <linearGradient id="Unbenannter_Verlauf_157" data-name="Unbenannter Verlauf 157" x1="410.82" y1="430.85" x2="409.19" y2="786.31" gradientTransform="translate(1.1 -11.6) scale(.04)" gradientUnits="userSpaceOnUse">
      <stop offset="0" stop-color="#e287af"/>
      <stop offset=".53" stop-color="#e17754"/>
      <stop offset="1" stop-color="#d66b31"/>
    </linearGradient>
  </defs>
  <path class="cls-11" d="M10.13,15.03c-.27.25-.48.52-.65.81-.12.05-.15.23-.11.34l.26,2.79c-.2-.45-.43-.88-.68-1.29-1.24-.82-1.38.67-1.33,1.58.02.4.21,1.06.57,1.2,0,.1.06.2.17.29.23.28,1.04,1.22,1.33,1.31.12.04.31.02.39-.06.08,0,.17,0,.26-.04.47.81,1.18,1.44,1.93,2.01.47.35,1.26.92,1.78,1.15.04.01.08,0,.11,0,.31.17.83.45,1.14.57.04.02.09.03.13.04l.13.04s.03,0,.04,0c.18.07.39.06.57,0,1.76-.21,4.83-1.98,5.68-3.57.08-.14.32-.88.37-.91.16-.08-.08.42-.05.48.09.16.53.17.69.12.65-.21,2.14-1.71,2.23-2.43.08-.61-.3-2.57-1.23-1.97-.55.35-.66,1.06-1.04,1.56,0,0,0-.25-.04-.55.02-.08.06-.16.07-.2.09-.79.2-1.85.2-2.64l-.05-.38h-.06s-.03-.07-.04-.1c-.09-.11-.15-.23-.22-.35-.07-.28-.5-.92-.67-1.2-.13-.21-.68-1.13-.83-1.22-.21-.07-.37-.05-.48.04h-.09c-.08-.05,0-.07.27-.08l.03-.05s.17-.02.18-.07c.01-.13-1.25-2.02-1.43-2.26-.05-.07-.02-.11-.16-.09-.81,1.64-1.72,2.94-2.64,4.48l-.09.13s-.06.03-.09.13c-.04.08-.1.14-.18.18-.03.04-.06.1-.09.13l-.09.13s-.03.03-.04.04c-.09.18-.21.33-.35.44-.01.02-.03.03-.04.04l-.13.13s-.08.12-.09.13c-.03.14-.14.22-.26.26-.03.03-.06.06-.09.09-.03.09-.04.1-.13.13-.04.04-.08.07-.13.13-.1-.1-.2-.17-.31-.22-.22-.61-.07-2.41-.04-3.12,0-.25.01-.49.03-.74,0-.07.05-.11-.06-.1-.1,0-1.02.97-1.21,1.08,0,.05.94.52.83.64-.03.04-.73-.5-.87-.51-.19-.01-.49.49-.53.14,0-.03.69-2.22.51-2.29s-2.41,2.53-2.53,2.77l-.8.88ZM11.47,14.79c.96-.94,2.02-.23,2.23.87-.13-.02-.18.06-.13.18-.02.09-.01.2.03.33.11.89.06,2.22-.5,2.96l.03.09s-.02.04-.02.05l-.4.09.03-.06-.07-.09c-1.33.23-1.53-1.63-1.61-2.58.03-.15,0-.26-.07-.32,0-.1-.02-.21-.13-.13-.03-.1,0-.21.05-.34,0,0,.51-1,.58-1.06ZM19.28,19.14c-.48-.8-.54-1.75-.49-2.67l-.08-.15c.09-.05.13-.17.12-.34.09-.15.1-.27.05-.36.05-.11-.07-.27-.18-.18-.04-.03.36-.77.36-.77.61-.7,1.51-.48,2.03.2.07.07.14.11.14.16,0,.11.28.65.42.58l.07-.05c.17-.06.4-.2.42-.17-.04.08-.09.11-.18.13-.04-.07-.17-.04-.13.04-.03.05-.07.08-.13.09-.05-.02-.08,0-.04.04l.04.13s-.04.04,0,.04l.04.13c-.11.05-.11.08,0,.13v.04c-.24.12-.24.32-.22.57l-.1.08c-.07.71-.23,1.85-.86,2.3-.12.04-.2.1-.23.18.07.04.15.04.23.03v.05c-.04-.07-.07-.07-.1,0l-.12-.02c-.44.05-.8.03-1.07-.07v-.17Z"/>
  <path class="cls-25" d="M31.28,8.44v.04c-.04-.05-.12-.11-.18-.18l.18.13Z"/>
  <path class="cls-18" d="M30,1.67s-.06,0-.09,0l-.04-.04s.11-.02.13.04Z"/>
  <path class="cls-75" d="M4.99,9.1c.07-.04.09-.03.04.04-.05.09-.12.18-.2.25l-1.73,1.29c.02.16-.24.35-.4.31l-.09-.04c.11-.1.25-.26.35-.35.63-.55,1.34-1.02,2.02-1.49Z"/>
  <path class="cls-24" d="M4.15,16.75l-.13-.09s.12,0,.13.09Z"/>
  <path class="cls-55" d="M12.29,24.09s-.12.04-.09-.09c.04.03.07.04.09.09Z"/>
  <path class="cls-32" d="M10.13,22.07l.04.04c-.05.21-.58.25-.62,0l-1.36-1.45s-.04-.02,0-.04c0-.01.05-.06.04-.09.23.32,1.09,1.32,1.38,1.49.18.11.31.11.51.04Z"/>
  <path class="cls-14" d="M27.76,2.51l-.1.15c-1.25.66-2.33,1.6-3.32,2.59-.11.11-.35.36-.2.5.3.25.57.51.81.8.19.12.44.37.53.57.02.01.02.03,0,.04.04.07.04.1-.04.09h-.11c-.39-.47-.81-.93-1.28-1.32-.15-.12-.79-.6-.65-.15.3.18,1.78,1.64,1.66,1.82-.01.02-.03.03-.05.05.05.03.06.07,0,.09l-.22-.14c-.86-1.1-1.96-1.98-3.2-2.61-1.48-.76-2.74-.99-4.35-1.27-.09-.01-.16-.06-.23-.11.04-.06.16-.05.22-.04.48.06.98.13,1.45.22.74.14,2.02.52,2.73.84,0,0,1.22.62,1.77.95,0-.32.8-.1.72,0,2.44-2.87,3.89-3.05,3.89-3.05Z"/>
  <path class="cls-2" d="M22.44,14.11c.09.06.11.06.08-.06-.06-.24-.27-.38-.32-.56-.03-.11,0-.35-.03-.39-.03-.04-.21-.03-.21-.07-.04-.27.32-.14.35-.16.03-.02-.05-.14.18-.2.26-.07.47.07.69.11.07.01.16-.06.25-.04.26.06.09.46.61.33.13-.03.2-.19.23-.2.05-.01.14.05.22.04.45-.06.49-.16.64.37.01.05-.04.19.09.07.03,0,.06,0,.06,0,.06.24.28,1.85.17,1.95-.03.03-.07.03-.11.02-.09-.01-.53-.54-.51-.66-.1.01-.18-.07-.24-.15,0,.28-.02.58-.07.86-.04.15-.04.29.01.44l-.06.04c-.03.41-.14.8-.26,1.19-.04.2-.1.21-.18.04-.26-.63-.55-1.2-.88-1.8-.3-.33-.53-.77-.7-1.19Z"/>
  <path class="cls-59" d="M26.84,12.71c-.04.38.03.82,0,1.21-.09,1.31-.69,3.66-1.48,4.72-.19.26-.17-.17-.24-.37-.1-.27-.3-.7-.55-.86-.09-.06-.26-.02-.29-.11s.15-.63.17-.76c0,.15.02.08.09.02,1.2-1.07,2.34-2.1,2.24-3.85.01-.04.03-.04.04,0Z"/>
  <path class="cls-33" d="M26.22,8.27c-.07.1-.04.07.04.13-.24.03-.07.33-.18.53-.01.02-.15.12-.18.18-.02-.03-.19-.17-.22-.22-.23-.38-.44-.78-.7-1.14,0-.03,0-.06,0-.09.01-.04.03-.04.04,0h.1s.75,1.22.75,1.22c.18-.2.11-.4.01-.62-.13-.31-.31-.61-.5-.89l.03-.1s.02-.06.04-.09c.16.18.28.38.4.59.11.18.13.47.34.51Z"/>
  <path class="cls-71" d="M5.54,19.23c-.15-.16-.4-.35-.72-.49,1.05-.44,1.99-.41,1.56-1.04-1.06-1.54-5.93-3.95-5.5-4.42.38-.42,1.08-1.4,1.83-2.28-.65.31-1.76,1.6-2.1,1.89-.95.81,2.16,3.25,4.26,4.3,2.99,1.45-1.84.72.18,1.93.27.23.91.52,1.01.57l.18.09c.06.03,1.7.73,1.76.75.09.08.16.11.22.09.09.03.08-.01.04-.09-.15-.22-.39-.49-.45-.76-.11-.48-.17-2.33.63-2.22.89.13.88,1.28,1.36,1.78-.05-.81-.2-1.63-.26-2.44-.02-.22-.08-.83,0-.99.04-.08.02-.1-.04-.04-.08.1-.18.2-.26.31.14.68.22,1.39.25,2.13l-.36-.96c-.27-.5-.47-.13-.23.23-1.47-.98-1.63,1.92-1.06,2.67-.07.08-1.7-.7-1.87-.81l-.4-.21Z"/>
  <path class="cls-63" d="M24.99,7.65c-.03-.29-1.1-1.3-1.36-1.56-.13-.12-.53-.28-.31-.53.15-.17.52.12.66.22.41.3,1.14,1.06,1.45,1.47.1.16-.25.45-.4.4h-.04Z"/>
  <path class="cls-68" d="M5.69,8.75c.07.31.5-.24.71-.33.1-.04.24,0,.31-.04.11-.07-.06-.22-.05-.24.04-.07.61-.05.7.02.3.23-.07.19-.09.2-.1.07.62.13.68.13.13,0,.24-.08.31-.07.22,0,.97.16,1.09.03.03-.03.04-.17.09-.17.06,0,.05.18.14.21.15.06.35-.04.48-.03.49.03,1.09.12,1.58.08.11,0,.18-.12.27-.13.11-.01.26.11.4.13.38.04,1-.02,1.4-.04.34-.01.76-.3.62.35-.02.11-.29.44-.07.44.02.03.04.06.03.08-.21.63-.47,1.28-.72,1.89-.95.82-1.79,1.83-2.59,2.86l-.15.1c-.17.3-.39.56-.66.79-.18.32-.41.61-.7.88-.01.16-.09.32-.26.31v.13c-.17.29-.51.72-.84.8-.02,0-.05,0-.06,0-.1-.09-.22-1.32-.12-1.49-.01-.56.05-1.09.18-1.61l.08-.06c.01-.08,0-.12-.04-.13.01.09-.03.17-.09.25-.13.16-1.51,1.1-1.6,1.05-.04-.02-.04-.07-.03-.11-.06-.43.06-.85.17-1.26.35-1.25.99-2.35,1.64-3.45,0,0-.04.09-.1.05-.03.03-.08.04-.1.02-.06-.14-.12-.28-.16-.42-.27-.03-.31,0-.47.18-1.01-.19-2.17-.11-3.16.18-.3-.09-.15-.29.09-.34.29-.15.35-.24.17-.25l-1.59,1.04-.09-.04c.63-.54,1.26-1.06,1.93-1.54.19-.13.47-.26.66-.4Z"/>
  <path class="cls-38" d="M14.27,9.28c.1-.22.25-.49.37-.71.03-.06.02-.17.03-.17,0,0,.16-.04.13.06-.04.16-.24.44-.32.61-.55,1.24-.97,2.53-1.27,3.85-.04-.04-.05-.11-.04-.22-.01-.35.05-.71.18-1.08l-1.15,1.2.79.26v.1c.12,0,.11.05,0,.09l-.07.07c-.28-.13-.57-.22-.87-.28-.18.07-.93.98-1,1.16.04.06.02.11-.05.14.06.06.03.08-.04.04-.08.1-.18.03-.13-.09-.04-.01-.04-.03,0-.04.06-.05.06-.08,0-.09.51-.6,1-1.24,1.52-1.84.23-.27,1.16-1.11,1.27-1.33.24-.49.4-1.23.64-1.76Z"/>
  <path class="cls-30" d="M30.22,7.34c4.04,3.85.49,2.19-2.24,1.32-4.28-.73,2.53,0,4.03,1.05-.03-.1-2.48-2.73-1.79-2.37Z"/>
  <path class="cls-48" d="M30.36,1.63c2.96-.3,1.76.69,0,1.63.04.12-.02.16-.13.13.02.02,0,.04-.04.04-1.71,1.22,1.35-1.55,1.98-1.52-1.47-.45-3.02.22-4.4.6.12-.63,1.89-.76,2.59-.88Z"/>
  <path class="cls-78" d="M30.22,3.39c.66.2,4.58,1.66,4.75,2.07-.37-.87-2.92-2.35-4.75-2.07Z"/>
  <path class="cls-66" d="M27.5,6.03l.08-.14c.26-.14,2.52-1.16,2.81-1.04.14.06.19.17.08.29l-.53.49c1.72-.52,3.48-.62,5.11.12-.08-.12-.11-.21-.08-.29l.04-.04c.09.09.17.11.22.26.13.39-.26.35-.53.35-.08-.06-.23-.07-.46,0-1.42.23-2.83.68-4.13,1.28v.05s2.12,2.51,2.12,2.51c-.52-.06-1.03-.39-1.53-.56-1.46-.49-2.98-.77-4.49-1.02-.05.05-.11.08-.15.02-.16-.37-.36-.72-.6-1.05v-.07s0-.04,0-.04c.03-.04.07-.04.13,0,.54-.42,1.12-.78,1.76-1.07.02-.03.06-.04.13-.03Z"/>
  <path class="cls-81" d="M30.14,7.34c.82-.62,3.36-1.46,4.57-1.32-1.13.12-3.5.62-4.48,1.32-.05-.05-.09-.18-.09,0Z"/>
  <path class="cls-13" d="M27.76,2.51c1.14-.56,2.7-.95,3.97-.79.13.02.64.07.51.23-.06.08-.85.45-1.02.56-.27.17-1.43.97-1.52,1.2-.08.19.44-.25.48-.29.03-.03.08-.03.13,0,.02-.03.05-.06.07-.06.31-.03.84,0,1.07.19,1.17.22,2.37.66,3.17,1.58l-.09.04c-.6-.44-1.26-.9-1.99-1.09-.39.08-.68.09-1.08,0-.31.22-.43.18-.8.04-.25.01-.51-.03-.78-.11l-.14.03c.09.45-.2.36-.47.22-.61.21-1.34.34-1.9-.04-.26.24-.91.2-1.24.11-.07-.12-.18-.09-.33.09-.4.04-.67.21-.82.5l-.56.4c-.33.31-.27.4.1.63.05.05.09.11.11.18.18.01.29.12.31.31.04.05.04.08,0,.09-.29-.28-.58-.57-.91-.8-.13-.14.17-.43.28-.55.88-.98,2.26-2.1,3.45-2.69Z"/>
  <path class="cls-19" d="M30.31,3.43s-.09,0-.13,0c.02-.01.03-.03.04-.04l.09.04Z"/>
  <path class="cls-10" d="M24.64,6.16c-.08-.08-.43-.36-.44-.38-.2-.34.54-.74.74-.9.04-.03.04-.14.1-.19.32-.27.38-.2.71-.3.11-.03.19-.2.28-.2.08,0,.12.11.22.13.14.03.87.01,1-.04.06-.03.06-.14.14-.13.02,0,.12.13.23.16.12.03.7.1.82.1.27,0,.68-.23.89-.21.1,0,.14.16.29.12.16-.05-.1-.29.14-.35.33-.08.47.09.67.12.09.01.17-.04.24-.03.11.02.42.15.53.13.04,0,.05-.1.1-.13.29-.13.44.04.7.04.18,0,.33-.1.52-.09.47.03,1.73.83,2.09,1.14.09.08.28.22.35.31.06.07.25.32.18.4-.05.05-1.01-.35-1.17-.39-1.51-.38-2.91-.05-4.37.35l.83-.77c.01-.06-.05-.11-.11-.11-.12,0-.86.24-1.02.3-.56.2-1.28.52-1.82.8-.23.16-.29-.13-.24-.32-.37-.14-.62-.1-.98.02-.11.14-.25.14-.42,0-.28.17-.33.18-.49-.09-.12.21-.59.23-.74.07-.04-.29-.13-.3-.27-.02.18.09.53.29.3.48Z"/>
  <path class="cls-45" d="M24.64,6.16c.05-.46-.68-.26-.24-.7.26-.26.24.15.3.22.04.04.41.04.46.02.08-.03.15-.26.31-.09.05.05.03.15.07.15.08.02.23-.13.31-.13.11,0,.19.14.26.12.04,0,.08-.1.15-.12.08-.02.45-.13.48-.13.07,0,.61.11.62.14.02.1-.14.34.14.38-.01,0-.04.08-.09.11-.61.32-1.2.65-1.8.99-.26-.14-.48-.42-.66-.66-.1-.1-.21-.21-.31-.31Z"/>
  <path class="cls-10" d="M24.95,6.47c.22.22.47.4.66.66-.05.06-.08.02-.13,0-.15-.07-.39-.43-.53-.57v-.09Z"/>
  <path class="cls-82" d="M25.43,7.26c.2.27.67,1.06.65,1.37,0,.12-.16.46-.28.3l-.77-1.27c.16-.17.29-.18.4-.4Z"/>
  <path class="cls-20" d="M.64,13.37l.13-.07c.78-.15,1.59-.19,2.39-.2.16,0,2.57.07,2.72.35.07.13-.04.21-.14.28-.29.17-.55.36-.79.57l1.6.52.02.1c.09.03.09.16.08.25.15-.07.3-.14.44-.24l.05.03c.15-.02.31.01.48.09.2.08.38.09.54.04-.03.65.01,1.29.13,1.92.02.12.19.29.09.1.3-.22.59-.62.84-.92l.13.06c.09.77.19,1.57.22,2.36-.28-.17-.46-1.3-.68-1.41-.18-.09.17.47.11.53-.03.03-.53-.27-.68-.27-.73,0-.77,1.72-.67,2.21.05.23.18.36.25.54.13.3-.49.02-.59-.02-.41-.16-1.08-.49-1.47-.71-.26-.14-.64-.37-.89-.53-.05-.03-.26-.17-.25-.23l1.67-.79-2.17-1.26c-1.09-.78-2.23-1.64-3.11-2.65-.07-.08-.42-.56-.44-.64Z"/>
  <path class="cls-83" d="M1.43,12.31c.48-.46,1.03-.97,1.72-.66.24-.23.35-.21.63-.06.32-.24.48-.33.72.06.27-.31.47-.32.57-.03l.12.07c.16-.07.3-.08.43-.04.14-.13.25-.19.41-.05.35-.06.65-.02.92.13.37-.44.53-.32.48.36-.06.08-.08.15-.06.21v.09c-.3.69-.55,1.42-.68,2.17l-.07.07c.02.08.03.23-.04.26l-1.76-.57c-.09-.14,1.01-.72,1.01-.81,0-.14-1.16-.27-1.34-.28-1.29-.13-2.57-.02-3.85.13,0,0-.04-.02-.04-.06.01-.09.72-.93.83-1Z"/>
  <path class="cls-17" d="M3.1,10.69l1.66-1.09c.46.13.17.25-.1.43-.03.02-.38.11-.12.18.04,0,.52-.16.62-.17.68-.08,1.54-.13,2.23-.08.09,0,.26.09.31.08.04,0,.04-.14.14-.17.05-.02.34-.02.38-.01.03,0,.13.43.2.49v.12c-.36.58-.69,1.17-.97,1.79l-.09.07c-.21.01.03-.16.03-.24,0-.05-.06-.11-.07-.18,0-.07,0-.32,0-.33-.1-.1-.23.25-.38.26-.07,0-.13-.1-.22-.11-.28-.05-.45-.01-.7-.01-.06,0-.12-.08-.17-.08-.1,0-.17.16-.22.17-.02,0-.08-.08-.13-.07-.19.02-.29.18-.49-.02-.07-.06-.03-.29-.29-.12-.07.04-.06.19-.23.18-.19-.02-.08-.29-.35-.27-.14,0-.2.22-.4.21-.08,0-.14-.12-.26-.12-.16,0-.18.16-.31.18-.21.03-.25-.18-.64-.07s-.79.46-1.09.64c.37-.47.83-.91,1.27-1.32.12-.11.27-.2.4-.31Z"/>
  <path class="cls-67" d="M16.99,3.61c3.11.3,6.13,1.58,8,4.13.29.31.53.75.7,1.14.38.63.64,1.39.84,2.1.15.55.32,1.17.26,1.73.27,1.73-1.07,2.94-2.25,3.97-.1.04-.09-.06-.08-.15.02-.14.04-.25.04-.4.05-.44.09-.9.13-1.36-.2-.09.09-.28.09-.04h.06c.04.07.55.73.62.62.06-.37.06-.77,0-1.18l.07-.06-.04-.13h-.06c-.04-.23-.08-.46-.12-.68l-.04.07c0,.14-.05.17-.15.06-.08-.43-.11-.54-.57-.41l-.18-.04c-.32.38-.67.26-.89-.13l-.26.03c-.27-.12-.52-.15-.75-.07-.03.12-.15.17-.36.16.19.04.28.22.25.54l.22.33c.12.16.15.51-.08.28-.95-1.41-1.87-2.83-2.77-4.26-.06-.04-.02-.11-.02-.1-.63,1.2-1.26,2.36-1.99,3.51s-1.55,2.39-2.66,3.24c-.29-.02-.26-2.55-.16-2.88l.03-.56-.04-.02.04-.63c-.05-.16-.27.03-.33.1l-1,.92c.04.08-.39.32-.42.31-.14-.05-.09-.74.07-.81.09-.7.26-1.41.53-2.05.19-.56.39-1.11.61-1.65,0,0-.02.08-.09.06-.09.16-.21,0-.16-.16.06-.08.28-.6.1-.61-.49.07-1,.13-1.5.12-.3,0-.51-.01-.78-.14-.14.1-.28.16-.46.14-.64-.04-1.28-.06-1.91-.07-.06-.09-.13-.1-.2,0-.36.04-.72.02-1.08-.05-.17.12-1.05.07-1.06-.11,0-.08.05-.13.13-.12.05-.06-.52-.13-.53-.05.06.2-.07.3-.39.29l-.52.39c-.15.07-.34-.01-.2-.15.04-.09.14-.18.29-.26.17-.1.23-.19.17-.26-.6-.36-1.19-.73-1.77-1.11-.03-.11,1.45-.95,1.71-1.05,2.47-1.36,5.39-2.38,8.22-2.51.83-.04,1.86-.03,2.68.04Z"/>
  <path class="cls-21" d="M13.52,3.52c.26-.03.52.09.79.04-2.9.21-5.71,1.49-8.22,2.46,2.17-1.59,4.75-2.07,7.43-2.51Z"/>
  <path class="cls-62" d="M22.97,6.82s-.23,0-.28,0c-.17-.05-.64-.81-.56-.91s.44.07.53.15.37.7.31.77Z"/>
  <path class="cls-31" d="M6.09,6.03c-4.04,1.77,2.47,1.73-1.1,3.08,3.5-1.79-3.77-1.11,1.1-3.08Z"/>
  <path class="cls-47" d="M25.48,14.11l-.04-.13s.04.04.04.13Z"/>
  <path class="cls-12" d="M20.58,5.64c.54-.12,1.41.89,1.66,1.31.6,1.06.07,1.64-.83.7-.31-.32-1.07-1.43-.99-1.87.02-.09.08-.13.17-.15Z"/>
  <path class="cls-46" d="M19.67,9.85s-.07.09-.09.13l-.02.17c-.73,1.46-1.56,2.87-2.49,4.22l-.13.1-.09.13c.06.1.03.14-.09.13-.03.1-.06.16-.18.18.07.11.04.17-.09.13l-.09.13s0,.06-.04.04c-.08.12-.15.23-.2.34l-.15.1c.06.06.03.09-.04.04l-.13.13c.1.08.03.17-.09.13,0,.12-.15.24-.26.26.06.11.02.15-.09.09-.01.08-.05.12-.13.13.08.11-.01.17-.13.13-.14.05-.27-.1-.31-.22l-.1-.03c-.18-.23-.08-2.6-.03-3.02l.09-.06c.02-.06.05-.12.09-.18,0,1.12-.18,2.29.13,3.38,2.18-1.93,3.54-4.66,4.84-7.22h.12c-.14.19-.2.42-.31.63Z"/>
  <path class="cls-76" d="M13.21,12.93c0,.11-.15.74-.02.75.1,0,1.34-1.25,1.56-1.38.04-.02.16-.04.17-.02.03.03-.03.68-.04.79-.02.2-.08.4-.04.62l-.04-.44c-.08-.2-.11-.43-.08-.69l-1,.93.52.33c.18.09.4.36.1.38-.27-.17-.54-.34-.82-.5-.52.41-.67.3-.62-.35l.09-.06s0-.07,0-.09c-.09-.11.04-.45.18-.48.07.04.05.15.04.22Z"/>
  <path class="cls-34" d="M5.39,6.38l-.13.09s.08-.05.13-.09Z"/>
  <path class="cls-15" d="M6.22,19.78l-.18-.09c.07.03.1.04.18.09Z"/>
  <path class="cls-58" d="M8.42,10.33c.07-.11.44-.67.51-.7.05-.02.08,0,.06.06-1.07,1.57-2.1,3.38-2.29,5.3-.05.02-.08.01-.08-.03v-.32c.09-.79.42-1.61.74-2.33.3-.66.67-1.37,1.06-1.98Z"/>
  <path class="cls-8" d="M8.46,13.94c-.16.55-.21,1.11-.26,1.67l-.04-.03c.02-.23.02-.45,0-.67l-.08-.08.06-.42c-.31.25-.64.44-1,.54-.07.04-.51.38-.57.31-.01-.01,0-.29,0-.35,0-.09.03-.18.04-.26.1.09-.01.24.09.35.07.07.15,0,.21-.03.36-.19,1.31-.83,1.5-1.16.06-.04.08,0,.04.13Z"/>
  <path class="cls-37" d="M8.2,15.61c.01.28.05,1.31.18,1.49.06.09.4-.15.19.09s-.29-.06-.34-.23c-.17-.69-.13-1.2-.07-1.88-.12-.07-.12-.11,0-.18.09.21.04.48.04.7Z"/>
  <path class="cls-85" d="M10.84,14.2c.05.03.05.06,0,.09,0,.01,0,.03,0,.04.02.03.03.07.03.11s-.5.58-.6.55c-.01,0-.03,0-.04,0h-.04c.22-.27.45-.55.66-.79Z"/>
  <path class="cls-72" d="M8.46,13.94l-.04-.13s.15-.55.22-.24c.01.06-.15.29-.17.37Z"/>
  <path class="cls-50" d="M8.15,14.91c0,.06,0,.12,0,.18-.05.05,0,.13-.11.13-.17.01-.74-.16-.9-.27.37-.23.72-.47,1.08-.7.03.22-.04.44-.07.66Z"/>
  <path class="cls-3" d="M20.24,28.93c-.02-.05.11-.19.17-.14"/>
  <path class="cls-3" d="M12.42,29.06h.1"/>
  <path class="cls-28" d="M11.3,27.89c-.01-.23.07-.34.23-.48.18-.18,1.1-.54,1.2-.22.02.05-.08.44-.1.53,0,0-.02.02-.03.02-.1.34-.16.71-.17,1.11"/>
  <path class="cls-28" d="M20.39,28.76c-.03-.56-.19-1.13-.44-1.61,0-.06.01-.17.06-.2.1-.06,1.2.43,1.25.59"/>
  <path class="cls-9" d="M11.23,27.92c-.24-1.67,2.93-.17,2.91-1.99-.14-1.16.44-.62,1.19-.27.06.1,0,.16-.09.22-1.83-1.14-.16.78-.98,1.52-.05-1.11-1.11-.19-1.63.4.25-.94-.77-.77-1.25-.08"/>
  <path class="cls-42" d="M12.52,27.86c.01-.07.08-.11.08-.12l.04.04s.04.03,0,.04c-.06.22-.12.44-.18.66,0,.12.03.24.09.35.03.07.02.1-.04.13.08.1.02.15-.09.09"/>
  <path class="cls-60" d="M15.32,25.81c.84.31,1.18.14,2-.13.16-.05,1.16-.49,1.21-.44.07.07-.26,1.71.09,1.98-.14.1-.24.25-.37.35-1.04.79-2.17.73-3.29.12-.15-.08-.43-.34-.54-.39-.08-.03-.05.13-.15.09.09-.2.14-.54.14-.77s-.23-1.25-.18-1.3c.04-.04.94.43,1.1.48Z"/>
  <path class="cls-49" d="M24.54,14.42c-.12.15-.3,2.95-.51,2.68.01-.34-.56-1.74-.94-1.79,0,.74-.8,4.53-.11,3.97,2.49-4.3,2.56,2.78-.64,2.53.29.02.1-.83-.18-.39-.84,2.49-4.04,4.14-6.48,4.41-.01-.04-.03-.04-.04,0l-.13-.04c-.38.51,2.26,0,2.95-.46-.39.71.42,2.97.2,1.32.05-.01,1.08.68.98.37-.1-.35-.74-.48-1.06-.7.21-.42-.01-1.14.48-1.41,0,0,.8-.49,1.01-.62.65-.3,1.73-1.61,2.16-2.24,0,0,.68.42,1.46-.33.13-.12.97-.79.96-.97,1.22-1.51.59-1.62.92-2.26.82-1.6,2.35-6.11.38-9.16,1.55,2.96.51,7.52-.65,9.23-.11-.47-.35-1.24-.92-1.31l.15-.62c.04-.42.16-1.42.12-1.97,0,0,.69.84.78.79s.07-2.06-.25-2.81-.23-1.21-.39-1.11.28.53.48,2.15.14,1.52.07,1.51-.71-.9-.8-.79Z"/>
  <path class="cls-59" d="M23.72,17.59s.01-.12,0-.13c-.13-.15-.54,1.17-.7,1.19l.18-2.9c.19.18.37.52.49.76.05.11.33.75.34.81,0,.08-.26.32-.3.28Z"/>
  <path class="cls-60" d="M16.24,25.85c-.17.1-.41.12-.57,0,.22.03.35.03.57,0Z"/>
  <path class="cls-60" d="M15.63,25.85c-.07-.01-.09-.03-.13-.04l.13.04Z"/>
  <path class="cls-1" d="M13.74,15.74l-.11-.02c-.7-1.36-1.89-1.25-2.5.12l-.11.03-.09.1c.03-.2.02-.33-.04-.41-.23-.14-.42-.24-.62-.44-.16.09-.18-.05-.04-.13,0-.04.02-.04.04,0l.09-.05c.22.15.44.25.68.31l.17-.32-.29-.43.04-.09.04-.04s.43.35.46.35c.04,0,.47-.35.65-.41.27-.09.45-.08.71.02.44.16,1.06.95.91,1.4Z"/>
  <path class="cls-79" d="M14.22,25.19c-2.3-.75-4.13-2.66-4.34-5.05.22,1.63,2.18,4.22,4.34,5.05Z"/>
  <path class="cls-40" d="M9.38,20.13s-.13.04-.16.17c-.07.39.64.95.56,1.02-.1.09-.7-.75-.7-.95,0-.17.15-.26.17-.36.02-.08-.75-1.47-.83-1.51-.1-.05-.23.45-.31.48-.01-.18.12-.72.37-.53.07.05.82,1.34.87,1.46.02.06.06.13.02.2Z"/>
  <path class="cls-52" d="M24.68,18.64c-.16.03-.12-.26-.2-.26-.11,0-.75.91-.76,1.08,0,.19.31.28.24.6-.02.1-.35.61-.47.52-.05-.04.45-.39.33-.75-.05-.14-.22-.11-.2-.37.02-.23.63-1.15.84-1.19.11-.02.26.27.22.38Z"/>
  <path class="cls-65" d="M18.35,22.07c-.09.22-.43.36-.64.44-.53.2-1.14.27-1.69.35-.02-.1.04-.11.11-.13.5-.16,1.06-.11,1.62-.35.23-.1.37-.25.59-.31Z"/>
  <path class="cls-56" d="M15.76,22.77c-.02.08-.09.09-.15.09-.46.03-1.18-.3-1.56-.57.59.19,1.07.48,1.71.48Z"/>
  <path class="cls-51" d="M15.98,20.53c-.11.11-.2-.24-.21-.34-.02-.18-.02-.36.03-.54.14.06.21.85.18.88Z"/>
  <path class="cls-53" d="M10.22,14.99c-.09.1,0,.08.04.13-.17.1-.67.64-.75.79l-.04-.04c.24-.29.46-.59.7-.88h.04Z"/>
  <path class="cls-39" d="M13.17,19.3s.05.06.04.09c-.37.09-.85.25-1.19,0,.28.06.48.04.75,0,.01,0,.03,0,.04,0l.18-.04s.17-.04.18-.04Z"/>
  <path class="cls-80" d="M10.88,15.56s.08-.03.09.03c.03.12-.15.42.04.28-.05.12-.06.28-.13.4,0,0-.08.08-.09.02-.02-.24.19-.5.09-.72Z"/>
  <path class="cls-84" d="M20.38,19.39c.17-.01.54-.06.22.09-.03,0-.06,0-.09,0-.08-.08-.24-.04-.35-.04.05-.07.15-.04.22-.04Z"/>
  <path class="cls-73" d="M20.2,28.88c.05-.06.15-.16.16-.22,0-.15-.31-1.26-.4-1.36-.04-.05-.26-.17-.33-.22s-1.02-.57-1.05-.53c-.08.09.14.55.13.64,0,.05-.07,0-.09.02l-.11-.02c-1.05,1.19-2.8,1.09-3.94.1-.1-.11-.2-.08-.3.1-.1-.05.02-.57,0-.73,0-.06.02-.08-.07-.06-.29.3-1.19.53-1.43.77-.1.1-.1.28-.13.42,0,.01,0,.03,0,.04-.09.22-.13.44-.13.66-.05.13-.03.25.04.35-.12.02-.04.12-.04.13,0,.04,0,.07.02.09,0,0,5.65.89,7.68-.18l.04.04"/>
  <path class="cls-28" d="M12.51,28.49h-.04c0-.17.1-.5.18-.66-.04.18-.12.49-.13.66Z"/>
  <path class="cls-29" d="M22.44,14.11c.25.53.86,1.01.62,1.63-.18-1.05-1.61-2.61-2-3.45-2.8-4.46.14-.34,1.38,1.82Z"/>
  <path class="cls-77" d="M20.99,12.4s.22.06.26.09c-.17-.02-.32.04-.48.04-.13-.04-.16-.04-.09,0-.02.03-.59.19-.7.24-.37.16-.8.39-1.14.62-.23.15-.85.74-1,.8-.21.08,0-.13.07-.19.59-.56,2.27-1.64,3.08-1.6Z"/>
  <path class="cls-11" d="M15.76,15.96c.1.13-.18.34-.26.26.08-.09.2-.19.26-.26Z"/>
  <path class="cls-11" d="M16.38,15.21c-.02.26-.14.19-.18.22-.05.04.18.21-.18.22.11-.16.24-.29.35-.44Z"/>
  <path class="cls-11" d="M16.77,14.73c-.04.13.1.21-.18.18.05-.07.09-.14.18-.18Z"/>
  <path class="cls-11" d="M15.41,16.31c.01.14.01.14-.13.13.04-.05.09-.09.13-.13Z"/>
  <path class="cls-11" d="M15.98,15.7s.02.12-.13.13c.02-.03,0-.12.13-.13Z"/>
  <path class="cls-11" d="M16.86,14.6l.09-.13s-.08.12-.09.13Z"/>
  <path class="cls-11" d="M16.42,15.17l.09-.13s-.04.07-.09.13Z"/>
  <path class="cls-29" d="M21.56,14.6c.07-.05.08-.02.04.09-.07.12-.24.26-.24.42,0,.1.22.41.29.51h.14c-.09.11-.12.18-.1.22l.04.09s0,.03,0,.04l.04.13s0,.09,0,.13c-.02.04-.07.14-.13.09-.08-.06-.42-.89-.59-1.1-.76-.95-1.78-.68-2.31.31-.02-.01-.11.01-.13,0-.02-.02.04-.08.04-.09-.02-.06-.02-.08.04-.09.05-.15.03-.23.13-.4.02-.09.07-.15.13-.18.61-.71,1.33-.71,2.02-.11.28.24.18.46.57-.06Z"/>
  <path class="cls-29" d="M21.65,15.61c.15-.06.28-.09.41-.18.07-.05.74-.73.42-.26l-.09.09c-.08.09-.13.14-.22.22-.03.08-.09.11-.18.13-.04.03-.1.03-.13.04,0,.05-.05.08-.13.09-.02,0-.04.03-.04.04v.04c-.16-.1.06-.14.04-.18,0,0-.06-.01-.09-.04Z"/>
  <path class="cls-29" d="M21.61,14.69l-.04-.09c.12-.16.17-.41.35-.53-.01.24-.19.42-.31.62Z"/>
  <path class="cls-41" d="M22,15.61l.18-.13s0,.08-.04.11c-.05.03-.12.01-.13.02Z"/>
  <path class="cls-41" d="M21.87,15.65s0,.08,0,.09c-.02.01-.11-.01-.13,0l.13-.09Z"/>
  <path class="cls-11" d="M18.71,15.34l-.04.09s-.06-.08-.04-.09c.01,0,.09,0,.09,0Z"/>
  <path class="cls-41" d="M22.49,15.17c-.08.12-.08.08-.09.09l.09-.09Z"/>
  <path class="cls-41" d="M21.74,15.92s-.05-.05-.04-.09c0-.02,0-.03,0-.04.06.03.03.09.04.13Z"/>
  <path class="cls-41" d="M21.78,16.09l-.04-.13s.03.05.04.13Z"/>
  <path class="cls-61" d="M20.77,12.53s-.06,0-.09,0c0,0-.04-.02-.04-.04l.13.04Z"/>
  <path class="cls-6" d="M18.93,15.7c-.1-.24.31-.59.53-.7.75-.37,1.37.08,1.76.72.2.32.4.74.35,1.12-.06.29-.05.65-.14.98-.14.54-.43,1.47-1.05,1.57l-.22.04c-.26.06-.6.08-.84-.04-.59-.9-.63-1.91-.57-2.99.02-.34.03-.39.18-.7Z"/>
  <path class="cls-64" d="M20.16,19.43c.1-.03.35-.07.35.04-.24,0-1,.11-1.18,0-.02-.01,0-.07,0-.08.28.02.55.04.84.04Z"/>
  <path class="cls-35" d="M18.75,15.52c-.04-.21.17-.43.33-.58.72-.69,1.67-.42,2.16.39l.45.88.1.02v.04c-.07.08-.2.5-.22.57-.22-.88-.85-2.21-1.96-1.81-.31.11-.53.38-.67.67-.08-.05-.09-.12-.18-.18Z"/>
  <path class="cls-69" d="M19.67,15.34c.06.09.06.09-.04.09l-.04.18.08.09c-.07,1.02.7.35.51-.26l.07-.1c-.06-.08-.03-.11.04-.04.2.2.31.52.35.79.02.06.03.13.04.2.01.08.03.23.02.31,0,.01-.03.02-.06.03h-.1c-.1-.1-.23-.18-.38-.2.24.17.17,1.41,0,1.48h-.1c0,.13-.28.11-.31-.01h-.1c-.07-.33-.08-.67-.05-1.02l-.28.55-.1.03s-.03.04-.04,0c-.01-.53-.03-1.64.31-2.07.09-.16.35-.24.18-.04Z"/>
  <path class="cls-44" d="M20.02,18.95c-.1,0-.15-.03-.18-.09.05-.07.14-.11.27-.12.08-.13.17-.19.25-.19.16-.6.23-1.21.18-1.83l.08-.1c0-.15.03-.32,0-.53.27.59.22,2.76-.62,2.86Z"/>
  <path class="cls-27" d="M19.41,18.42c.09,0,.17.07.23.19.13.07.2.16.21.25.06.03.12.05.18.09-.51.06-.72-.47-.79-.88l-.04-.35c0-.09,0-.18,0-.26h.04l.09.04c.07.31.1.62.09.93Z"/>
  <path class="cls-7" d="M20.29,15.3s-.05.03-.04.04c-.07.03-.16.02-.27-.03-.11.04-.21.05-.3.03.05-.16-.13-.02-.18.04.18-.32.54-.34.79-.09Z"/>
  <path class="cls-23" d="M19.23,18.07c-.02-.14-.03-.2-.04-.35l.04.35Z"/>
  <path class="cls-54" d="M20.64,16.62c.02.64.08,1.36-.26,1.93l-.08-.08c0-.22-.07-.41-.23-.58.2-.24.19-.94.12-1.24-.01-.07-.18-.24-.12-.29.11-.1.52.11.57.26Z"/>
  <path class="cls-36" d="M19.76,17.89c.05,0,.24,0,.31,0,.26,0,.36.45.31.66-.14.24-.22.34-.53.31-.18-.09-.36-.24-.44-.44-.04-.23.11-.7.35-.53Z"/>
  <path class="cls-43" d="M20.24,15.34c0,.09.05.18.05.28-.05.86-.88.99-.71-.02l.04-.18s0-.05.04-.09c.18-.17.39-.15.57,0Z"/>
  <path class="cls-23" d="M19.76,17.89c-.2,0-.29.37-.35.53-.05-.13-.18-.84-.18-.97,0-.1.38-.81.42-.79.13.05-.06,1.03.11,1.23Z"/>
  <path class="cls-7" d="M19.59,15.61c.01-.09,0-.08.04-.18l-.04.18Z"/>
  <path class="cls-22" d="M11.01,16.4c-.11-.26.25-.71.43-.92.56-.68,1.23-.77,1.88-.11.13.13.38.39.29.55.03.05.07.09.08.12.13.35.04,1.91-.04,2.32-.04.2-.31.85-.48.95,0,.08-.14.1-.18.04l-.18.04s-.03.04-.04,0c-.6,0-.95.01-1.27-.56-.26-.47-.59-1.92-.49-2.43Z"/>
  <path class="cls-4" d="M13.74,15.74c-.02.06-.09.13-.13.18-.31-.59-.94-1.13-1.62-.81-.35.16-.9.92-.97,1.29-.07-.01-.11-.11-.13-.13-.05-.11.02-.33.13-.4.17-.41.57-.97,1-1.13.85-.32,1.33.37,1.73,1Z"/>
  <path class="cls-70" d="M13.3,17.72h-.05s0-.96,0-.96l-.02,1.19c0,.21-.05.36-.16.48l-.08-.06c.03-.27-.05-.41-.23-.42-.01-.08.13-.21.13-.24v-.84c0-.23-.4-.57.15-.46.11.02.1.07.16.13.05.02.07-.04.04-.18,0-.08.01-.18,0-.26.16.49.1,1.12.04,1.63Z"/>
  <path class="cls-26" d="M13.3,17.72c.05,1.22-.85,1.95-1.32.42-.1-.32-.12-.62-.13-.95l.04.4.13-.22.07.09c0,.29.04.59.11.88l.11.03c.18.51.4.71.68.08l.1-.02c.16-.57.15-1.17.18-1.76l.04,1.05Z"/>
  <path class="cls-11" d="M12.99,19.34c-.08.03-.09.03-.18.04l.18-.04Z"/>
  <path class="cls-57" d="M12.46,17.85c.1.22.19.16.31.09.03-.02.1-.08.11-.08.19.02.22.41.2.56s-.27.52-.41.52c-.26,0-.39-.42-.47-.61-.11-.24,0-.64.26-.48Z"/>
  <path class="cls-5" d="M13.25,16.09c.03.11.03.19,0,.26.03.11.01.17-.04.18-.11-.03-.23-.05-.36-.06.12.19.14.32.05.39.03,0,.08.01.09.04.01.06.01.68,0,.73l-.09.06c.07.05.02.13-.13.24.04.25-.45.16-.31-.09l-.1-.02c-.05-.29-.05-.59,0-.89-.09.12-.17.25-.23.39l-.11.04c-.03.12-.07.21-.13.27l-.05-.44c0-.34,0-.74.09-1.07.28-1.07,1.13-1.35,1.32-.02Z"/>
  <path class="cls-74" d="M12.58,15.31c.42-.08.47,1.13-.09,1.05-.3-.04-.13-1.01.09-1.05Z"/>
  <path class="cls-16" d="M12.46,17.85c-.23.04-.29.29-.26.48-.13-.31-.27-.62-.18-.97.05-.18.28-.55.44-.66.01.32-.13.85,0,1.14Z"/>
  <path class="cls-26" d="M13.25,16.36s.09.19.04.26c-.08.12-.08-.08-.09-.09l.04-.18Z"/>
</svg>